SplineFontDB: 3.0
FontName: Oxygen-Light
FullName: Oxygen Light
FamilyName: Oxygen
Weight: Light
Copyright: 2012 vernon adams
Version: webfont 0.2
ItalicAngle: 0
UnderlinePosition: 0
UnderlineWidth: 0
Ascent: 1638
Descent: 410
UFOAscent: 1514
UFODescent: -410
LayerCount: 2
Layer: 0 0 "Back"  1
Layer: 1 0 "Fore"  0
FSType: 0
OS2Version: 0
OS2_WeightWidthSlopeOnly: 0
OS2_UseTypoMetrics: 0
CreationTime: 1336048760
ModificationTime: 1338580827
PfmFamily: 33
TTFWeight: 300
TTFWidth: 5
LineGap: 0
VLineGap: 0
Panose: 2 0 4 3 0 0 0 0 0 4
OS2TypoAscent: 2082
OS2TypoAOffset: 0
OS2TypoDescent: -690
OS2TypoDOffset: 0
OS2TypoLinegap: 0
OS2WinAscent: 2082
OS2WinAOffset: 0
OS2WinDescent: 690
OS2WinDOffset: 0
HheadAscent: 2082
HheadAOffset: 0
HheadDescent: -690
HheadDOffset: 0
OS2SubXSize: 0
OS2SubYSize: 0
OS2SubXOff: 0
OS2SubYOff: 0
OS2SupXSize: 0
OS2SupYSize: 0
OS2SupXOff: 0
OS2SupYOff: 0
OS2StrikeYSize: 0
OS2StrikeYPos: 0
OS2Vendor: 'newt'
Lookup: 4 0 1 "'liga' Standard Ligatures lookup 0"  {"'liga'"  } ['liga' ('DFLT' <'dflt' > 'cyrl' <'dflt' > 'grek' <'dflt' > 'latn' <'dflt' > ) ]
Lookup: 258 0 0 "'kern' Horizontal Kerning in Latin lookup 0"  {"'kern' Horizontal Kerning in Latin lookup 0 subtable" [307,30,0] "'kern' Horizontal Kerning lookup 2 kerning class 1" [307,0,0] } ['kern' ('DFLT' <'dflt' > 'latn' <'dflt' > ) ]
MarkAttachClasses: 1
DEI: 91125
KernClass2: 26 21 "'kern' Horizontal Kerning lookup 2 kerning class 1" 
 89 A Agrave Aacute Acircumflex Atilde Adieresis Aring Amacron Abreve Aogonek uni0200 uni0202
 1 B
 111 D O Q Eth Ograve Oacute Ocircumflex Otilde Odieresis Oslash Dcaron Omacron Obreve Ohungarumlaut uni020C uni020E
 1 F
 1 K
 33 L Lacute Lcommaaccent Lcaron Ldot
 1 P
 44 R Racute Rcommaaccent Rcaron uni0210 uni0212
 16 T Tcaron uni021A
 103 U Ugrave Uacute Ucircumflex Udieresis Utilde Umacron Ubreve Uring Uhungarumlaut Uogonek uni0214 uni0216
 1 V
 1 W
 18 Y Yacute Ydieresis

StartChar: A
Encoding: 33 65 0
Width: 1276
VWidth: 0
Flags: HW
LayerCount: 2
Fore
SplineSet
6 0 m 1
 587 1488 l 1
 710 1488 l 1
 1270 0 l 1
 1138 0 l 1
 948 505 l 1
 331 505 l 1
 133 0 l 1
 6 0 l 1
380 599 m 1
 902 599 l 1
 902 599 677 1245 647 1359 c 1
 620 1260 380 599 380 599 c 1
EndSplineSet
EndChar

StartChar: AE
Encoding: 132 198 1
Width: 1934
VWidth: 0
Flags: HW
LayerCount: 2
Fore
SplineSet
6 0 m 1
 892 1488 l 1
 1786 1488 l 1
 1779 1377 l 1
 1060 1377 l 1
 1101 822 l 1
 1744 822 l 1
 1744 713 l 1
 1109 713 l 1
 1158 111 l 1
 1801 111 l 1
 1790 0 l 1
 1053 0 l 1
 1014 505 l 1
 441 505 l 1
 148 0 l 1
 6 0 l 1
495 600 m 1
 1006 600 l 1
 950 1378 l 1
 495 600 l 1
EndSplineSet
EndChar

StartChar: B
Encoding: 34 66 11
Width: 1327
VWidth: 0
Flags: HW
LayerCount: 2
Fore
SplineSet
213 0 m 1
 213 1488 l 1
 619 1488 l 2
 993 1488 1151 1363 1151 1116 c 0
 1151 1058 1157 863 904 785 c 1
 1121 753 1226 594 1226 419 c 0
 1226 168 1075 0 717 0 c 2
 213 0 l 1
341 100 m 1
 684 100 l 2
 951 100 1089 201 1089 419 c 0
 1089 659 929 727 626 727 c 2
 341 727 l 1
 341 100 l 1
341 825 m 1
 682 825 l 2
 880 825 1015 878 1015 1107 c 0
 1015 1324 878 1384 613 1384 c 2
 341 1384 l 1
 341 825 l 1
EndSplineSet
EndChar

StartChar: C
Encoding: 35 67 12
Width: 1313
VWidth: 0
Flags: HW
LayerCount: 2
Fore
SplineSet
832 -24 m 0
 364 -24 137 308 137 749 c 0
 137 1189 392 1514 845 1514 c 0
 1030 1514 1160 1471 1259 1412 c 1
 1198 1313 l 1
 1100 1372 974 1407 846 1407 c 0
 471 1407 279 1112 279 742 c 0
 279 387 449 83 851 83 c 0
 980 83 1099 124 1201 170 c 1
 1227 67 l 1
 1139 12 1011 -24 832 -24 c 0
EndSplineSet
EndChar

StartChar: D
Encoding: 36 68 18
Width: 1547
VWidth: 0
Flags: HW
LayerCount: 2
Fore
SplineSet
341 107 m 1
 633 107 l 2
 1042 107 1268 315 1268 738 c 0
 1268 1204 1014 1382 604 1382 c 2
 341 1382 l 1
 341 107 l 1
213 0 m 1
 213 1488 l 1
 616 1488 l 2
 1091 1488 1411 1268 1411 743 c 0
 1411 248 1121 0 647 0 c 2
 213 0 l 1
EndSplineSet
EndChar

StartChar: E
Encoding: 37 69 20
Width: 1190
VWidth: 0
Flags: HW
PickledData: "(dp1
S'com.typemytype.robofont.layerData'
p2
(dp3
s."
LayerCount: 2
Fore
SplineSet
213 0 m 1
 213 1488 l 1
 1042 1488 l 1
 1037 1382 l 1
 341 1382 l 1
 341 822 l 1
 1003 822 l 1
 1003 713 l 1
 341 713 l 1
 341 107 l 1
 1059 107 l 1
 1048 0 l 1
 213 0 l 1
EndSplineSet
EndChar

StartChar: Eth
Encoding: 142 208 28
AltUni2: 000110.ffffffff.0
Width: 1523
VWidth: 0
Flags: HW
LayerCount: 2
Fore
SplineSet
316 107 m 1
 608 107 l 2
 1017 107 1243 315 1243 738 c 0
 1243 1204 989 1382 579 1382 c 2
 316 1382 l 1
 316 833 l 1
 558 833 l 1
 558 737 l 1
 316 737 l 1
 316 107 l 1
188 0 m 1
 188 737 l 1
 46 737 l 1
 46 833 l 1
 188 833 l 1
 188 1488 l 1
 591 1488 l 2
 1066 1488 1386 1268 1386 743 c 0
 1386 248 1096 0 622 0 c 2
 188 0 l 1
EndSplineSet
EndChar

StartChar: F
Encoding: 38 70 29
Width: 1062
VWidth: 0
Flags: HW
LayerCount: 2
Fore
SplineSet
213 0 m 1
 213 1488 l 1
 1013 1488 l 1
 1007 1377 l 1
 342 1377 l 1
 342 789 l 1
 977 789 l 1
 977 686 l 1
 342 686 l 1
 342 0 l 1
 213 0 l 1
EndSplineSet
EndChar

StartChar: G
Encoding: 39 71 30
Width: 1511
VWidth: 0
Flags: HW
PickledData: "(dp1
S'com.typemytype.robofont.layerData'
p2
(dp3
s."
LayerCount: 2
Fore
SplineSet
840 -24 m 0
 377 -24 137 315 137 740 c 0
 137 1186 400 1514 866 1514 c 0
 1040 1514 1187 1472 1310 1399 c 1
 1253 1296 l 1
 1147 1360 1000 1407 867 1407 c 0
 466 1407 277 1108 277 742 c 0
 277 349 471 83 883 83 c 0
 1004 83 1141 123 1229 158 c 1
 1229 634 l 1
 860 634 l 1
 868 745 l 1
 1348 745 l 1
 1348 89 l 1
 1181 3 1044 -24 840 -24 c 0
EndSplineSet
EndChar

StartChar: H
Encoding: 40 72 35
Width: 1534
VWidth: 0
Flags: HW
LayerCount: 2
Fore
SplineSet
213 0 m 1
 213 1488 l 1
 341 1488 l 1
 341 830 l 1
 1195 830 l 1
 1195 1488 l 1
 1323 1488 l 1
 1323 0 l 1
 1195 0 l 1
 1195 718 l 1
 341 718 l 1
 341 0 l 1
 213 0 l 1
EndSplineSet
EndChar

StartChar: Hbar
Encoding: 222 294 36
Width: 1469
VWidth: 0
Flags: HW
LayerCount: 2
Fore
SplineSet
165 0 m 1
 165 1125 l 1
 72 1125 l 1
 72 1212 l 1
 165 1212 l 1
 165 1521 l 1
 300 1521 l 1
 300 1212 l 1
 1172 1212 l 1
 1172 1521 l 1
 1307 1521 l 1
 1307 1212 l 1
 1399 1212 l 1
 1399 1125 l 1
 1307 1125 l 1
 1307 0 l 1
 1172 0 l 1
 1172 721 l 1
 300 721 l 1
 300 0 l 1
 165 0 l 1
300 845 m 1
 1172 845 l 1
 1172 1125 l 1
 300 1125 l 1
 300 845 l 1
EndSplineSet
EndChar

StartChar: I
Encoding: 41 73 38
Width: 577
VWidth: 0
Flags: HW
LayerCount: 2
Fore
SplineSet
225 0 m 1
 225 1488 l 1
 353 1488 l 1
 353 0 l 1
 225 0 l 1
EndSplineSet
EndChar

StartChar: J
Encoding: 42 74 49
Width: 533
VWidth: 0
Flags: HW
LayerCount: 2
Fore
SplineSet
-1 -138 m 1
 -10 -44 l 1
 38 -44 l 2
 177 -44 232 0 232 216 c 2
 232 1488 l 1
 365 1488 l 1
 365 303 l 2
 365 7 364 -138 11 -138 c 2
 -1 -138 l 1
EndSplineSet
EndChar

StartChar: K
Encoding: 43 75 51
Width: 1253
VWidth: 0
Flags: HW
PickledData: "(dp1
S'com.typemytype.robofont.layerData'
p2
(dp3
s."
LayerCount: 2
Fore
SplineSet
213 0 m 1
 213 1488 l 1
 342 1488 l 1
 342 719 l 1
 342 719 1038 1488 1037 1488 c 2
 1206 1488 l 1
 585 817 l 1
 1257 0 l 1
 1094 0 l 1
 487 739 l 1
 342 603 l 1
 342 0 l 1
 213 0 l 1
EndSplineSet
EndChar

StartChar: L
Encoding: 44 76 53
Width: 1031
VWidth: 0
Flags: HW
LayerCount: 2
Fore
SplineSet
213 0 m 1
 213 1488 l 1
 342 1488 l 1
 342 113 l 1
 1011 113 l 1
 1005 0 l 1
 213 0 l 1
EndSplineSet
EndChar

StartChar: Lslash
Encoding: 246 321 58
Width: 1002
VWidth: 0
Flags: HW
LayerCount: 2
Fore
SplineSet
11 545 m 1
 11 669 l 1
 184 757 l 1
 184 1488 l 1
 313 1488 l 1
 313 823 l 1
 655 998 l 1
 655 867 l 1
 313 696 l 1
 313 113 l 1
 982 113 l 1
 976 0 l 1
 184 0 l 1
 184 632 l 1
 11 545 l 1
EndSplineSet
EndChar

StartChar: M
Encoding: 45 77 59
Width: 1864
VWidth: 0
Flags: HW
PickledData: "(dp1
S'com.typemytype.robofont.layerData'
p2
(dp3
s."
LayerCount: 2
Fore
SplineSet
213 0 m 1
 213 1488 l 1
 393 1488 l 1
 944 231 l 1
 1480 1488 l 1
 1653 1488 l 1
 1653 0 l 1
 1526 0 l 1
 1526 1001 l 1
 1533 1339 l 1
 1496 1219 l 1
 1007 85 l 1
 867 85 l 1
 372 1222 l 1
 333 1342 l 1
 340 996 l 1
 340 0 l 1
 213 0 l 1
EndSplineSet
EndChar

StartChar: N
Encoding: 46 78 60
Width: 1559
VWidth: 0
Flags: HW
LayerCount: 2
Fore
SplineSet
213 0 m 1
 213 1488 l 1
 362 1488 l 1
 1181 233 l 1
 1234 160 l 1
 1234 160 1227 468 1227 543 c 2
 1227 1488 l 1
 1348 1488 l 1
 1348 0 l 1
 1196 0 l 1
 379 1253 l 1
 328 1326 l 1
 335 1129 336 1116 336 938 c 2
 336 0 l 1
 213 0 l 1
EndSplineSet
EndChar

StartChar: O
Encoding: 47 79 65
Width: 1665
VWidth: 0
Flags: HW
LayerCount: 2
Fore
SplineSet
834 83 m 4
 1211 83 1386 349 1386 745 c 0
 1386 1161 1201 1407 835 1407 c 0
 468 1407 277 1163 277 745 c 0
 277 348 458 83 834 83 c 4
834 -24 m 0
 371 -24 137 296 137 744 c 0
 137 1208 383 1514 835 1514 c 0
 1278 1514 1528 1205 1528 743 c 0
 1528 305 1289 -24 834 -24 c 0
EndSplineSet
EndChar

StartChar: OE
Encoding: 260 338 66
Width: 1987
VWidth: 0
Flags: HW
LayerCount: 2
Fore
SplineSet
836 -23 m 0
 354 -23 137 297 137 785 c 0
 137 1230 425 1514 818 1514 c 0
 967 1514 1093 1480 1158 1435 c 1
 1158 1488 l 1
 1832 1488 l 1
 1816 1382 l 1
 1286 1382 l 1
 1286 822 l 1
 1777 822 l 1
 1777 713 l 1
 1286 713 l 1
 1286 107 l 1
 1854 107 l 1
 1840 0 l 1
 1158 0 l 1
 1158 60 l 1
 1134 31 947 -23 836 -23 c 0
838 82 m 0
 1024 82 1121 151 1158 175 c 1
 1158 1318 l 1
 1076 1372 959 1407 826 1407 c 0
 494 1407 277 1185 277 771 c 0
 277 404 401 82 838 82 c 0
EndSplineSet
EndChar

StartChar: Oslash
Encoding: 150 216 74
Width: 1665
VWidth: 0
Flags: HW
LayerCount: 2
Fore
SplineSet
499 -229 m 1
 410 -192 l 1
 506 44 l 1
 261 161 137 418 137 744 c 0
 137 1208 383 1517 835 1517 c 0
 928 1517 1013 1503 1089 1477 c 1
 1182 1706 l 1
 1276 1673 l 1
 1180 1437 l 1
 1405 1317 1528 1067 1528 743 c 0
 1528 305 1289 -23 834 -23 c 0
 747 -23 668 -12 597 10 c 1
 499 -229 l 1
549 150 m 1
 1048 1376 l 1
 985 1398 914 1410 835 1410 c 0
 468 1410 277 1163 277 745 c 0
 277 467 366 253 549 150 c 1
834 82 m 0
 1211 82 1386 349 1386 745 c 0
 1386 1024 1303 1228 1137 1332 c 1
 638 111 l 1
 696 92 761 82 834 82 c 0
EndSplineSet
EndChar

StartChar: P
Encoding: 48 80 76
Width: 1209
VWidth: 0
Flags: HW
LayerCount: 2
Fore
SplineSet
213 0 m 1
 213 1488 l 1
 668 1488 l 2
 915 1488 1119 1387 1119 1116 c 0
 1119 870 1044 668 574 668 c 0
 506 668 429 672 342 681 c 1
 342 0 l 1
 213 0 l 1
587 779 m 0
 998 779 992 977 992 1117 c 0
 992 1301 848 1376 673 1376 c 2
 342 1376 l 1
 342 791 l 1
 437 778 518 779 587 779 c 0
EndSplineSet
EndChar

StartChar: Q
Encoding: 49 81 77
Width: 1650
VWidth: 0
Flags: HW
LayerCount: 2
Fore
SplineSet
1272 -470 m 1
 1269 -462 1053 -200 966 -12 c 1
 922 -19 876 -24 826 -24 c 0
 359 -24 137 295 137 746 c 0
 137 1212 371 1514 828 1514 c 0
 1275 1514 1513 1208 1513 745 c 0
 1513 408 1381 128 1088 17 c 1
 1088 17 1251 -266 1370 -386 c 1
 1272 -470 l 1
826 83 m 0
 1195 83 1366 346 1366 747 c 0
 1366 1169 1185 1407 827 1407 c 0
 469 1407 281 1171 281 747 c 0
 281 346 457 83 826 83 c 0
EndSplineSet
EndChar

StartChar: R
Encoding: 50 82 78
Width: 1379
VWidth: 0
Flags: HW
PickledData: "(dp1
S'com.typemytype.robofont.layerData'
p2
(dp3
S'back'
p4
(dp5
S'name'
p6
S'R'
sS'lib'
p7
(dp8
sS'unicodes'
p9
(tsS'width'
p10
I1333
sS'contours'
p11
((dp12
S'points'
p13
((dp14
S'segmentType'
p15
S'line'
p16
sS'x'
F182
sS'smooth'
p17
I00
sS'y'
F0
s(dp18
g15
S'line'
p19
sS'x'
F1017
sg17
I00
sS'y'
F0
s(dp20
g15
S'line'
p21
sS'x'
F1028
sg17
I00
sS'y'
F107
s(dp22
g15
S'line'
p23
sS'x'
F310
sg17
I00
sS'y'
F107
s(dp24
g15
S'line'
p25
sS'x'
F310
sg17
I00
sS'y'
F713
s(dp26
g15
S'line'
p27
sS'x'
F972
sg17
I00
sS'y'
F713
s(dp28
g15
S'line'
p29
sS'x'
F972
sg17
I00
sS'y'
F822
s(dp30
g15
S'line'
p31
sS'x'
F310
sg17
I00
sS'y'
F822
s(dp32
g15
S'line'
p33
sS'x'
F310
sg17
I00
sS'y'
F1382
s(dp34
g15
S'line'
p35
sS'x'
F1006
sg17
I00
sS'y'
F1382
s(dp36
g15
S'line'
p37
sS'x'
F1011
sg17
I00
sS'y'
F1488
s(dp38
g15
S'line'
p39
sS'x'
F182
sg17
I00
sS'y'
F1488
stp40
stp41
sS'components'
p42
(tsS'anchors'
p43
(tsss."
LayerCount: 2
Fore
SplineSet
213 0 m 1
 213 1488 l 1
 637 1488 l 2
 982 1488 1202 1446 1202 1114 c 0
 1202 941 1122 795 930 746 c 1
 930 746 990 623 1020 559 c 1
 1264 0 l 1
 1115 0 l 1
 905 509 l 2
 867 601 830 682 811 725 c 1
 791 722 733 722 663 722 c 0
 524 723 341 728 341 728 c 1
 341 0 l 1
 213 0 l 1
718 828 m 0
 996 828 1075 930 1075 1112 c 0
 1075 1273 1002 1381 760 1381 c 2
 341 1381 l 1
 341 831 l 1
 498 829 560 828 718 828 c 0
EndSplineSet
EndChar

StartChar: S
Encoding: 51 83 82
Width: 1276
VWidth: 0
Flags: HW
LayerCount: 2
Fore
SplineSet
674 -24 m 4
 390 -24 194 58 115 105 c 1
 163 196 l 1
 305 119 476 83 685 83 c 0
 914 83 1041 206 1041 422 c 0
 1041 570 997 659 755 708 c 2
 515 756 l 2
 262 807 113 905 113 1127 c 0
 113 1407 340 1514 670 1514 c 0
 855 1514 1029 1456 1114 1413 c 1
 1081 1315 l 1
 1019 1349 852 1407 667 1407 c 0
 391 1407 244 1320 244 1114 c 0
 244 983 340 912 509 876 c 2
 777 821 l 2
 1029 768 1175 674 1175 419 c 0
 1175 133 968 -24 674 -24 c 4
EndSplineSet
EndChar

StartChar: T
Encoding: 52 84 87
Width: 1084
VWidth: 0
Flags: HW
LayerCount: 2
Fore
SplineSet
478 0 m 5
 478 1378 l 5
 10 1378 l 5
 10 1488 l 5
 1076 1488 l 5
 1076 1378 l 5
 608 1378 l 5
 608 0 l 5
 478 0 l 5
EndSplineSet
EndChar

StartChar: Thorn
Encoding: 156 222 90
Width: 1314
VWidth: 0
Flags: HW
LayerCount: 2
Fore
SplineSet
213 0 m 1
 213 1488 l 1
 341 1488 l 1
 341 1191 l 1
 710 1191 l 2
 1073 1191 1247 1086 1247 765 c 0
 1247 538 1143 356 769 356 c 2
 341 356 l 1
 341 0 l 1
 213 0 l 1
341 458 m 1
 775 458 l 2
 1045 458 1116 602 1116 775 c 0
 1116 985 1026 1085 726 1085 c 2
 341 1085 l 1
 341 458 l 1
EndSplineSet
EndChar

StartChar: U
Encoding: 53 85 91
Width: 1460
VWidth: 0
Flags: HW
PickledData: "(dp1
S'com.typemytype.robofont.layerData'
p2
(dp3
s."
LayerCount: 2
Fore
SplineSet
726 -24 m 0
 332 -24 184 197 184 517 c 2
 184 1488 l 1
 312 1488 l 1
 312 497 l 2
 312 211 453 83 734 83 c 0
 1007 83 1150 213 1150 498 c 2
 1150 1488 l 1
 1278 1488 l 1
 1278 515 l 2
 1278 196 1121 -24 726 -24 c 0
EndSplineSet
EndChar

StartChar: V
Encoding: 54 86 102
Width: 1204
VWidth: 0
Flags: HW
LayerCount: 2
Fore
SplineSet
531 0 m 1
 -5 1488 l 1
 137 1488 l 1
 475 529 l 1
 599 137 l 1
 726 535 l 0
 1067 1488 l 1
 1211 1488 l 1
 668 0 l 1
 531 0 l 1
EndSplineSet
EndChar

StartChar: W
Encoding: 55 87 103
Width: 1995
VWidth: 0
Flags: HW
LayerCount: 2
Fore
SplineSet
464 0 m 5
 2 1488 l 5
 143 1488 l 5
 539 142 l 5
 919 1448 l 5
 1087 1448 l 5
 1458 143 l 5
 1853 1488 l 5
 1993 1488 l 5
 1532 0 l 5
 1389 0 l 5
 1006 1321 l 5
 606 0 l 5
 464 0 l 5
EndSplineSet
EndChar

StartChar: X
Encoding: 56 88 104
Width: 1201
VWidth: 0
Flags: HW
PickledData: "(dp1
S'com.typemytype.robofont.layerData'
p2
(dp3
s."
LayerCount: 2
Fore
SplineSet
21 0 m 5
 524 786 l 5
 52 1488 l 5
 205 1488 l 5
 606 851 l 5
 1024 1488 l 5
 1161 1488 l 5
 689 794 l 5
 1181 0 l 5
 1035 0 l 5
 603 706 l 5
 159 0 l 5
 21 0 l 5
EndSplineSet
EndChar

StartChar: Y
Encoding: 57 89 105
Width: 1166
VWidth: 0
Flags: HW
LayerCount: 2
Fore
SplineSet
501 0 m 5
 501 589 l 5
 5 1488 l 5
 144 1488 l 5
 575 703 l 5
 1020 1488 l 5
 1161 1488 l 5
 632 593 l 5
 632 0 l 5
 501 0 l 5
EndSplineSet
EndChar

StartChar: Z
Encoding: 58 90 108
Width: 1200
VWidth: 0
Flags: HW
LayerCount: 2
Fore
SplineSet
113 0 m 5
 113 111 l 5
 939 1376 l 5
 143 1376 l 5
 143 1488 l 5
 1107 1488 l 5
 1107 1384 l 5
 275 113 l 5
 1115 113 l 5
 1107 0 l 5
 113 0 l 5
EndSplineSet
EndChar

StartChar: a
Encoding: 65 97 112
Width: 1118
VWidth: 0
Flags: HW
LayerCount: 2
Fore
SplineSet
457 -24 m 4
 256 -24 116 79 116 277 c 4
 116 512 327 599 632 622 c 4
 696 626 760 630 822 635 c 5
 822 757 l 6
 822 921 753 1016 580 1016 c 4
 472 1016 353 986 251 930 c 5
 216 1022 l 5
 297 1075 444 1116 574 1116 c 4
 830 1116 943 1025 943 732 c 6
 943 0 l 5
 846 0 l 5
 838 39 828 122 822 161 c 5
 725 22 592 -24 457 -24 c 4
461 75 m 4
 627 75 776 177 819 360 c 5
 819 547 l 5
 783 544 713 536 674 535 c 5
 346 505 240 437 240 275 c 4
 240 136 335 75 461 75 c 4
EndSplineSet
EndChar

StartChar: acute
Encoding: 115 180 116
Width: 697
VWidth: 0
Flags: HW
LayerCount: 2
Fore
SplineSet
147 1287 m 1
 341 1674 l 1
 495 1674 l 1
 222 1287 l 1
 147 1287 l 1
EndSplineSet
EndChar

StartChar: ae
Encoding: 164 230 118
Width: 1681
VWidth: 0
Flags: HW
LayerCount: 2
Fore
SplineSet
453 -24 m 0
 294 -24 115 45 116 289 c 0
 117 567 412 602 703 607 c 1
 756 607 l 1
 756 803 l 2
 756 935 699 1009 567 1009 c 0
 423 1009 303 972 206 913 c 1
 163 1019 l 1
 234 1065 406 1117 544 1117 c 0
 662 1117 840 1053 854 889 c 1
 930 1060 1078 1117 1216 1117 c 0
 1488 1117 1563 872 1563 708 c 0
 1563 596 1501 532 1310 530 c 1
 1310 530 941 513 886 513 c 2
 882 513 l 1
 891 256 985 75 1208 75 c 0
 1358 75 1449 119 1552 175 c 1
 1573 75 l 1
 1493 17 1373 -24 1200 -24 c 0
 1075 -24 977 13 897 95 c 1
 767 30 592 -24 453 -24 c 0
463 75 m 0
 577 75 716 116 839 165 c 1
 778 287 757 379 749 515 c 1
 301 515 240 417 240 282 c 0
 240 127 343 75 463 75 c 0
885 607 m 1
 885 607 1290 619 1310 621 c 0
 1426 630 1442 655 1442 713 c 0
 1442 896 1360 1011 1213 1011 c 0
 974 1011 893 797 885 607 c 1
EndSplineSet
EndChar

StartChar: ampersand
Encoding: 6 38 121
Width: 1536
VWidth: 0
Flags: HW
LayerCount: 2
Fore
SplineSet
661 -22 m 0
 294 -22 164 160 164 380 c 0
 164 607 296 737 510 849 c 1
 397 986 325 1073 325 1213 c 0
 325 1384 455 1514 701 1514 c 0
 896 1514 1050 1404 1050 1205 c 0
 1050 1034 895 920 682 821 c 1
 1191 288 l 1
 1238 339 1278 402 1307 471 c 1
 1379 414 l 1
 1348 340 1308 279 1258 216 c 1
 1413 62 l 1
 1338 -6 l 1
 1184 147 l 1
 1055 51 895 -22 661 -22 c 0
649 74 m 0
 823 74 1011 130 1112 219 c 1
 587 773 l 1
 416 679 285 554 285 376 c 0
 285 161 458 74 649 74 c 0
624 891 m 1
 789 975 942 1053 942 1217 c 0
 942 1347 835 1414 713 1414 c 0
 506 1414 436 1327 436 1214 c 0
 436 1105 540 966 624 891 c 1
EndSplineSet
EndChar

StartChar: approxequal
Encoding: 394 8776 123
Width: 1363
VWidth: 0
Flags: HW
LayerCount: 2
Fore
SplineSet
163 367 m 1
 189 573 292 686 452 686 c 0
 546 686 629 634 707 585 c 0
 783 537 857 481 917 481 c 0
 1008 481 1058 562 1079 684 c 1
 1184 711 l 1
 1159 509 1101 394 920 394 c 0
 843 394 756 431 639 510 c 1
 570 559 508 594 454 594 c 0
 351 594 298 523 269 398 c 1
 163 367 l 1
160 758 m 1
 184 961 292 1076 451 1076 c 0
 538 1076 611 1034 710 966 c 0
 804 901 859 871 915 871 c 0
 1005 871 1055 949 1075 1073 c 1
 1181 1103 l 1
 1157 900 1093 788 916 788 c 0
 835 788 751 823 636 904 c 0
 567 953 504 987 450 987 c 0
 347 987 294 920 269 796 c 1
 160 758 l 1
EndSplineSet
EndChar

StartChar: asciicircum
Encoding: 62 94 125
Width: 1185
VWidth: 0
Flags: HW
LayerCount: 2
Fore
SplineSet
98 558 m 1
 535 1488 l 1
 625 1488 l 1
 1085 558 l 1
 972 558 l 1
 579 1356 l 1
 214 558 l 1
 98 558 l 1
EndSplineSet
EndChar

StartChar: asciitilde
Encoding: 94 126 126
Width: 1276
VWidth: 0
Flags: HW
LayerCount: 2
Fore
SplineSet
175 524 m 1
 135 603 l 1
 179 717 270 803 398 803 c 0
 478 803 533 783 637 735 c 1
 737 690 820 645 880 645 c 0
 962 645 1046 731 1076 814 c 1
 1125 744 l 1
 1076 606 1004 537 880 537 c 0
 813 537 740 562 659 598 c 1
 546 652 465 692 396 692 c 0
 308 692 223 618 175 524 c 1
EndSplineSet
EndChar

StartChar: asterisk
Encoding: 10 42 127
Width: 1138
VWidth: 0
Flags: HW
LayerCount: 2
Fore
SplineSet
369 573 m 1
 235 655 l 1
 485 1005 l 1
 116 1092 l 1
 160 1240 l 1
 523 1077 l 1
 485 1514 l 1
 652 1514 l 1
 615 1077 l 1
 979 1240 l 1
 1024 1093 l 1
 650 1005 l 1
 705 923 795 821 905 655 c 1
 837 605 841 623 773 574 c 1
 565 961 l 1
 369 573 l 1
EndSplineSet
EndChar

StartChar: at
Encoding: 32 64 128
Width: 1910
VWidth: 0
Flags: HW
LayerCount: 2
Fore
SplineSet
903 -82 m 0
 451 -82 152 200 152 682 c 0
 152 1152 497 1514 999 1514 c 0
 1431 1514 1756 1258 1756 839 c 0
 1756 522 1528 326 1302 326 c 0
 1197 326 1123 399 1105 494 c 1
 1058 408 958 332 805 332 c 0
 659 332 592 451 592 598 c 0
 592 834 766 1143 1063 1143 c 0
 1145 1143 1272 1122 1353 1095 c 1
 1292 905 1213 713 1213 599 c 0
 1213 504 1245 416 1313 416 c 0
 1461 416 1637 576 1637 848 c 0
 1637 1202 1372 1407 1008 1407 c 0
 615 1407 272 1175 272 670 c 0
 272 266 510 17 906 17 c 0
 1063 17 1205 52 1326 102 c 1
 1352 5 l 1
 1239 -45 1068 -82 903 -82 c 0
827 423 m 0
 1032 423 1074 584 1127 748 c 0
 1156 839 1185 934 1214 1034 c 1
 1178 1051 1108 1060 1057 1060 c 0
 832 1060 712 798 712 610 c 0
 712 505 749 423 827 423 c 0
EndSplineSet
EndChar

StartChar: b
Encoding: 66 98 130
Width: 1227
VWidth: 0
Flags: HW
LayerCount: 2
Fore
SplineSet
644 -24 m 0
 500 -24 379 34 289 159 c 1
 276 0 l 1
 172 0 l 1
 172 1521 l 1
 295 1532 l 1
 295 1163 l 2
 295 1072 295 994 292 930 c 1
 378 1062 518 1116 644 1116 c 0
 949 1116 1115 872 1115 549 c 0
 1115 218 957 -24 644 -24 c 0
650 75 m 0
 907 75 983 310 983 543 c 0
 983 778 907 1016 650 1016 c 4
 418 1016 294 840 295 537 c 0
 295 265 392 75 650 75 c 0
EndSplineSet
EndChar

StartChar: backslash
Encoding: 60 92 131
Width: 832
VWidth: 0
Flags: HW
LayerCount: 2
Fore
SplineSet
662 -11 m 1
 72 1514 l 1
 194 1514 l 1
 784 -11 l 1
 662 -11 l 1
EndSplineSet
EndChar

StartChar: bar
Encoding: 92 124 132
Width: 932
VWidth: 0
Flags: HW
LayerCount: 2
Fore
SplineSet
407 -413 m 1
 407 1606 l 1
 526 1606 l 1
 526 -413 l 1
 407 -413 l 1
EndSplineSet
EndChar

StartChar: braceleft
Encoding: 91 123 133
Width: 738
VWidth: 0
Flags: HW
LayerCount: 2
Fore
SplineSet
627 -277 m 1
 391 -276 308 -135 308 95 c 2
 308 255 l 2
 308 436 289 590 100 590 c 1
 100 689 l 1
 322 694 308 820 308 1025 c 2
 308 1236 l 2
 308 1431 423 1557 627 1557 c 1
 627 1461 l 1
 478 1459 434 1385 434 1197 c 2
 434 934 l 2
 434 823 379 727 261 637 c 1
 393 584 434 448 434 342 c 2
 434 82 l 2
 434 -113 480 -179 627 -181 c 1
 627 -277 l 1
EndSplineSet
EndChar

StartChar: braceright
Encoding: 93 125 134
Width: 746
VWidth: 0
Flags: HW
LayerCount: 2
Fore
SplineSet
116 -277 m 1
 116 -181 l 1
 261 -179 310 -112 310 82 c 2
 310 342 l 2
 310 460 342 519 481 646 c 1
 351 686 309 828 310 934 c 1
 310 1197 l 2
 310 1385 263 1459 116 1461 c 1
 116 1557 l 1
 348 1557 435 1410 435 1184 c 2
 435 1025 l 2
 435 842 448 693 645 689 c 1
 645 590 l 1
 453 590 435 433 435 255 c 2
 435 42 l 2
 435 -149 325 -276 116 -277 c 1
EndSplineSet
EndChar

StartChar: bracketleft
Encoding: 59 91 135
Width: 727
VWidth: 0
Flags: HW
LayerCount: 2
Fore
SplineSet
172 -264 m 1
 172 1514 l 1
 620 1514 l 1
 620 1414 l 1
 308 1414 l 1
 308 -164 l 1
 620 -164 l 1
 620 -264 l 1
 172 -264 l 1
EndSplineSet
EndChar

StartChar: bracketright
Encoding: 61 93 136
Width: 727
VWidth: 0
Flags: HW
LayerCount: 2
Fore
SplineSet
108 -264 m 1
 108 -164 l 1
 420 -164 l 1
 420 1414 l 1
 108 1414 l 1
 108 1514 l 1
 556 1514 l 1
 556 -264 l 1
 108 -264 l 1
EndSplineSet
EndChar

StartChar: breve
Encoding: 342 728 137
Width: 824
VWidth: 0
Flags: HW
LayerCount: 2
Fore
SplineSet
416 1356 m 0
 294 1356 186 1442 186 1608 c 1
 278 1608 l 1
 278 1491 329 1434 416 1434 c 0
 502 1434 557 1491 557 1608 c 1
 651 1608 l 1
 651 1443 541 1356 416 1356 c 0
EndSplineSet
EndChar

StartChar: brokenbar
Encoding: 101 166 138
Width: 883
VWidth: 0
Flags: HW
LayerCount: 2
Fore
SplineSet
383 -200 m 1
 383 502 l 1
 503 502 l 1
 503 -200 l 1
 383 -200 l 1
383 850 m 1
 383 1549 l 1
 503 1549 l 1
 503 850 l 1
 383 850 l 1
EndSplineSet
EndChar

StartChar: bullet
Encoding: 368 8226 139
Width: 856
VWidth: 0
Flags: HW
LayerCount: 2
Fore
SplineSet
429 535 m 0
 254 535 170 658 170 782 c 0
 170 910 259 1039 429 1039 c 0
 602 1039 688 913 688 787 c 0
 688 661 602 535 429 535 c 0
EndSplineSet
EndChar

StartChar: c
Encoding: 67 99 140
Width: 994
VWidth: 0
Flags: HW
PickledData: "(dp1
S'com.typemytype.robofont.layerData'
p2
(dp3
s."
LayerCount: 2
Fore
SplineSet
620 -24 m 0
 291 -24 113 235 113 537 c 0
 114 849 291 1116 624 1116 c 0
 731 1116 848 1068 898 1041 c 1
 859 952 l 1
 779 997 687 1016 620 1016 c 0
 390 1016 244 819 244 537 c 0
 244 269 389 75 622 75 c 4
 712 75 795 105 873 139 c 1
 892 50 l 1
 827 2 717 -24 620 -24 c 0
EndSplineSet
EndChar

StartChar: caron
Encoding: 341 711 142
Width: 858
VWidth: 0
Flags: HW
LayerCount: 2
Fore
SplineSet
330 1310 m 1
 159 1669 l 1
 250 1669 l 1
 425 1374 l 1
 601 1669 l 1
 690 1669 l 1
 522 1310 l 1
 330 1310 l 1
EndSplineSet
EndChar

StartChar: cedilla
Encoding: 118 184 147
Width: 670
VWidth: 0
Flags: HW
LayerCount: 2
Fore
SplineSet
161 -410 m 1
 268 11 l 1
 327 11 l 1
 290 -410 l 1
 161 -410 l 1
EndSplineSet
EndChar

StartChar: cent
Encoding: 97 162 148
Width: 1012
VWidth: 0
Flags: HW
LayerCount: 2
Fore
SplineSet
583 -162 m 1
 583 -28 l 1
 268 1 113 289 113 537 c 1
 115 787 273 1093 583 1126 c 1
 583 1281 l 1
 660 1281 l 1
 660 1127 l 1
 774 1122 875 1085 927 1033 c 1
 886 950 l 1
 803 1005 729 1018 660 1023 c 1
 660 75 l 1
 749 84 828 118 886 156 c 1
 924 73 l 1
 864 13 756 -21 660 -28 c 1
 660 -162 l 1
 583 -162 l 1
583 77 m 1
 583 1022 l 1
 389 993 249 775 249 535 c 0
 249 308 380 108 583 77 c 1
EndSplineSet
EndChar

StartChar: circumflex
Encoding: 340 710 149
Width: 858
VWidth: 0
Flags: HW
LayerCount: 2
Fore
SplineSet
159 1310 m 1
 327 1669 l 1
 519 1669 l 1
 690 1310 l 1
 599 1310 l 1
 424 1605 l 1
 248 1310 l 1
 159 1310 l 1
EndSplineSet
EndChar

StartChar: colon
Encoding: 26 58 150
Width: 564
VWidth: 0
Flags: HW
LayerCount: 2
Fore
SplineSet
194 -37 m 1
 194 174 l 1
 373 174 l 1
 373 -37 l 1
 194 -37 l 1
194 927 m 1
 194 1136 l 1
 373 1136 l 1
 373 927 l 1
 194 927 l 1
EndSplineSet
EndChar

StartChar: comma
Encoding: 12 44 151
Width: 552
VWidth: 0
Flags: HW
PickledData: "(dp1
S'com.typemytype.robofont.layerData'
p2
(dp3
s."
LayerCount: 2
Fore
SplineSet
151 -275 m 1
 231 235 l 1
 360 235 l 1
 360 194 l 1
 328 54 269 -136 223 -275 c 1
 151 -275 l 1
EndSplineSet
EndChar

StartChar: commaaccentcomb
Encoding: -1 806 152
Width: 554
VWidth: 0
Flags: W
LayerCount: 2
Fore
SplineSet
164 -648 m 1
 241 -648 l 1
 404 -145 l 1
 263 -145 l 1
 164 -648 l 1
EndSplineSet
EndChar

StartChar: copyright
Encoding: 104 169 153
Width: 1933
VWidth: 0
Flags: HW
LayerCount: 2
Fore
SplineSet
951 174 m 0
 671 174 471 402 471 707 c 0
 471 1016 666 1237 967 1237 c 0
 1087 1237 1193 1200 1275 1142 c 1
 1251 1032 l 1
 1192 1086 1068 1130 961 1130 c 0
 715 1130 603 929 603 714 c 0
 603 469 722 280 981 280 c 0
 1079 280 1196 324 1243 359 c 1
 1279 257 l 1
 1213 217 1076 174 951 174 c 0
948 -24 m 0
 1294 -23 1636 217 1635 694 c 1
 1635 1176 1283 1424 936 1424 c 0
 597 1424 262 1188 262 701 c 0
 262 216 605 -24 948 -24 c 0
945 -116 m 0
 547 -116 150 154 150 698 c 0
 150 1246 543 1514 939 1514 c 0
 1341 1514 1747 1238 1747 698 c 0
 1747 157 1346 -116 945 -116 c 0
EndSplineSet
EndChar

StartChar: currency
Encoding: 99 164 154
Width: 1164
VWidth: 0
Flags: HW
LayerCount: 2
Fore
SplineSet
1037 234 m 1
 850 412 l 1
 776 350 686 314 584 314 c 0
 481 314 390 348 316 412 c 1
 131 235 l 1
 68 294 l 1
 253 474 l 1
 198 548 167 637 167 732 c 0
 167 826 198 914 253 989 c 1
 67 1171 l 1
 131 1230 l 1
 316 1053 l 1
 390 1117 483 1151 584 1151 c 0
 686 1151 776 1116 850 1053 c 1
 1037 1230 l 1
 1098 1168 l 1
 914 989 l 1
 969 910 1000 822 1000 732 c 0
 1000 634 970 546 915 474 c 1
 1097 295 l 1
 1037 234 l 1
584 402 m 0
 762 402 906 551 906 732 c 0
 906 913 761 1063 584 1063 c 0
 405 1063 262 914 262 732 c 0
 262 549 406 402 584 402 c 0
EndSplineSet
EndChar

StartChar: d
Encoding: 68 100 155
Width: 1223
VWidth: 0
Flags: HW
LayerCount: 2
Fore
SplineSet
577 -24 m 0
 285 -24 113 192 113 549 c 0
 113 883 295 1116 573 1116 c 0
 688 1116 855 1071 932 935 c 1
 932 968 l 1
 932 1521 l 1
 1052 1532 l 1
 1052 0 l 1
 949 0 l 1
 931 165 l 1
 850 34 702 -24 577 -24 c 0
574 75 m 0
 828 75 933 270 932 526 c 1
 932 819 837 1016 572 1016 c 4
 335 1016 246 774 246 547 c 0
 246 299 335 75 574 75 c 0
EndSplineSet
EndChar

StartChar: dagger
Encoding: 395 8224 156
Width: 890
VWidth: 0
Flags: HW
LayerCount: 2
Fore
SplineSet
393 1 m 1
 393 968 l 1
 104 968 l 1
 104 1047 l 1
 393 1047 l 1
 393 1488 l 1
 492 1488 l 1
 492 1047 l 1
 787 1047 l 1
 787 968 l 1
 497 968 l 1
 497 1 l 1
 393 1 l 1
EndSplineSet
EndChar

StartChar: daggerdbl
Encoding: 367 8225 157
Width: 910
VWidth: 0
Flags: HW
HStem: 1 21G<403.32 507.32> 474 79<114.32 403.32 507.32 797.32> 968 79<114.32 403.32 507.32 797.32> 1468 20G<403.32 502.32>
VStem: 403 104<1 474.2 553.2 968 1047 1488>
LayerCount: 2
Fore
SplineSet
507 474 m 1
 507 1 l 1
 403 1 l 1
 403 474 l 1
 114 474 l 1
 114 553 l 1
 403 553 l 1
 403 968 l 1
 114 968 l 1
 114 1047 l 1
 403 1047 l 1
 403 1488 l 1
 502 1488 l 1
 502 1047 l 1
 797 1047 l 1
 797 968 l 1
 507 968 l 1
 507 553 l 1
 797 553 l 1
 797 474 l 1
 507 474 l 1
EndSplineSet
EndChar

StartChar: dcroat
Encoding: 205 273 159
Width: 1206
VWidth: 0
Flags: HW
LayerCount: 2
Fore
SplineSet
675 1254 m 1
 675 1335 l 1
 932 1335 l 1
 932 1521 l 1
 1052 1532 l 1
 1052 1335 l 1
 1154 1335 l 1
 1154 1254 l 1
 1052 1254 l 1
 1052 0 l 1
 949 0 l 1
 931 165 l 1
 850 34 702 -23 577 -23 c 0
 285 -23 113 192 113 549 c 0
 113 883 295 1116 573 1116 c 0
 688 1116 855 1071 932 935 c 1
 932 1254 l 1
 675 1254 l 1
574 75 m 0
 828 75 933 270 932 526 c 1
 932 819 837 1015 572 1015 c 0
 335 1015 246 774 246 547 c 0
 246 299 335 75 574 75 c 0
EndSplineSet
EndChar

StartChar: degree
Encoding: 111 176 160
Width: 880
VWidth: 0
Flags: HW
LayerCount: 2
Fore
SplineSet
441 1011 m 0
 543 1011 646 1084 646 1231 c 0
 646 1379 543 1454 441 1454 c 0
 339 1454 238 1380 238 1231 c 0
 238 1084 339 1011 441 1011 c 0
437 932 m 0
 283 932 131 1030 131 1231 c 0
 131 1432 287 1533 442 1533 c 0
 597 1533 751 1433 751 1231 c 0
 751 1034 593 932 437 932 c 0
EndSplineSet
EndChar

StartChar: dieresis
Encoding: 103 168 161
Width: 811
VWidth: 0
Flags: HW
LayerCount: 2
Fore
SplineSet
159 1266 m 1
 159 1443 l 1
 295 1443 l 1
 295 1266 l 1
 159 1266 l 1
535 1266 m 1
 535 1443 l 1
 672 1443 l 1
 672 1266 l 1
 535 1266 l 1
EndSplineSet
EndChar

StartChar: divide
Encoding: 181 247 162
Width: 1122
VWidth: 0
Flags: HW
LayerCount: 2
Fore
SplineSet
456 82 m 1
 456 284 l 1
 647 284 l 1
 647 82 l 1
 456 82 l 1
70 554 m 1
 70 675 l 1
 1027 675 l 1
 1027 554 l 1
 70 554 l 1
456 913 m 1
 456 1115 l 1
 647 1115 l 1
 647 913 l 1
 456 913 l 1
EndSplineSet
EndChar

StartChar: dollar
Encoding: 4 36 163
Width: 1276
VWidth: 0
Flags: HW
LayerCount: 2
Fore
SplineSet
695 -23 m 1
 695 -213 l 1
 608 -213 l 1
 608 -22 l 1
 360 -11 188 62 115 105 c 1
 163 196 l 1
 287 129 434 92 608 84 c 1
 608 737 l 1
 515 756 l 2
 262 807 113 905 113 1127 c 0
 113 1389 312 1500 608 1513 c 1
 608 1741 l 1
 695 1741 l 1
 695 1514 l 1
 871 1509 1033 1454 1114 1413 c 1
 1081 1315 l 1
 1022 1347 869 1402 695 1407 c 1
 695 838 l 1
 777 821 l 1
 1029 768 1175 674 1175 419 c 0
 1175 140 978 -16 695 -23 c 1
608 856 m 1
 608 1406 l 1
 370 1394 244 1305 244 1114 c 0
 244 983 340 912 509 876 c 1
 608 856 l 1
695 720 m 1
 695 82 l 1
 918 86 1041 209 1041 422 c 0
 1041 570 997 659 755 708 c 2
 695 720 l 1
EndSplineSet
EndChar

StartChar: dotaccent
Encoding: 343 729 164
Width: 384
VWidth: 0
Flags: HW
LayerCount: 2
Fore
SplineSet
123 1331 m 1
 123 1516 l 1
 276 1516 l 1
 276 1331 l 1
 123 1331 l 1
EndSplineSet
EndChar

StartChar: dotlessi
Encoding: 233 305 165
Width: 417
VWidth: 0
Flags: HW
PickledData: "(dp1
S'com.typemytype.robofont.layerData'
p2
(dp3
s."
LayerCount: 2
Fore
SplineSet
161 0 m 1
 161 1096 l 1
 286 1096 l 1
 286 0 l 1
 161 0 l 1
EndSplineSet
EndChar

StartChar: e
Encoding: 69 101 166
Width: 1125
VWidth: 0
Flags: HW
PickledData: "(dp1
S'com.typemytype.robofont.layerData'
p2
(dp3
s."
LayerCount: 2
Fore
SplineSet
607 -24 m 0
 305 -24 113 192 113 540 c 0
 113 875 305 1110 581 1116 c 1
 837 1116 1008 919 1008 608 c 0
 1008 590 1007 554 1007 533 c 1
 244 533 l 1
 247 250 392 75 610 75 c 0
 768 75 868 121 961 171 c 1
 982 78 l 1
 876 13 765 -24 607 -24 c 0
249 633 m 1
 873 633 l 1
 873 881 757 1015 577 1015 c 4
 386 1015 270 853 249 633 c 1
EndSplineSet
EndChar

StartChar: eight
Encoding: 24 56 172
Width: 1235
VWidth: 0
Flags: HW
LayerCount: 2
Fore
SplineSet
621 -24 m 0
 360 -24 141 119 141 384 c 0
 141 577 265 742 486 803 c 1
 290 856 173 972 173 1144 c 0
 173 1374 358 1514 622 1514 c 0
 883 1514 1063 1375 1063 1144 c 0
 1063 970 949 856 767 803 c 1
 972 743 1096 579 1096 384 c 0
 1096 120 883 -24 621 -24 c 0
621 83 m 0
 811 83 961 196 961 378 c 0
 961 577 820 700 621 750 c 1
 425 700 276 578 276 379 c 0
 276 196 430 83 621 83 c 0
621 856 m 1
 828 897 932 992 932 1146 c 0
 932 1321 781 1407 621 1407 c 0
 461 1407 306 1321 306 1146 c 0
 306 993 413 897 621 856 c 1
EndSplineSet
EndChar

StartChar: equal
Encoding: 29 61 175
Width: 1109
VWidth: 0
Flags: HW
LayerCount: 2
Fore
SplineSet
141 392 m 1
 141 502 l 1
 969 502 l 1
 969 392 l 1
 141 392 l 1
140 831 m 1
 140 943 l 1
 970 943 l 1
 970 831 l 1
 140 831 l 1
EndSplineSet
EndChar

StartChar: eth
Encoding: 174 240 176
Width: 1226
VWidth: 0
Flags: HW
LayerCount: 2
Fore
SplineSet
610 -28 m 0
 283 -28 118 228 118 487 c 0
 118 775 313 970 603 970 c 0
 776 970 865 888 946 816 c 1
 880 936 699 1134 571 1252 c 1
 289 1133 l 1
 263 1229 l 1
 500 1324 l 1
 249 1546 l 1
 407 1546 l 1
 596 1374 l 1
 885 1500 l 1
 914 1408 l 1
 666 1299 l 1
 888 1065 1113 885 1113 499 c 0
 1113 497 1113 494 1113 492 c 0
 1113 215 953 -28 610 -28 c 0
615 72 m 0
 858 72 990 255 990 472 c 0
 990 656 858 872 609 872 c 0
 381 872 249 687 249 490 c 0
 249 288 365 72 615 72 c 0
EndSplineSet
EndChar

StartChar: exclam
Encoding: 1 33 177
Width: 716
VWidth: 0
Flags: HW
LayerCount: 2
Fore
SplineSet
325 419 m 1
 266 1425 l 1
 266 1514 l 1
 443 1514 l 1
 443 1425 l 1
 391 419 l 1
 325 419 l 1
358 -8 m 0
 270 -8 235 55 235 111 c 0
 235 166 270 228 358 228 c 0
 448 228 482 166 482 111 c 0
 482 55 448 -8 358 -8 c 0
EndSplineSet
EndChar

StartChar: exclamdown
Encoding: 96 161 178
Width: 716
VWidth: 0
Flags: HW
LayerCount: 2
Fore
SplineSet
268 -402 m 1
 268 -312 l 1
 318 694 l 1
 384 694 l 1
 445 -312 l 1
 445 -402 l 1
 268 -402 l 1
358 892 m 0
 268 892 235 954 235 1009 c 0
 235 1064 268 1127 358 1127 c 0
 446 1127 482 1064 482 1009 c 0
 482 954 446 892 358 892 c 0
EndSplineSet
EndChar

StartChar: f
Encoding: 70 102 179
Width: 636
VWidth: 0
Flags: HW
LayerCount: 2
Fore
SplineSet
222 0 m 1
 222 1005 l 1
 42 1005 l 1
 50 1082 l 1
 222 1096 l 1
 222 1137 l 2
 222 1428 324 1549 529 1549 c 0
 580 1549 622 1543 682 1534 c 1
 673 1452 l 1
 629 1457 587 1463 543 1463 c 0
 388 1463 346 1372 346 1131 c 2
 346 1096 l 1
 613 1096 l 1
 613 1005 l 1
 346 1005 l 1
 346 0 l 1
 222 0 l 1
EndSplineSet
EndChar

StartChar: five
Encoding: 21 53 180
Width: 1237
VWidth: 0
Flags: HW
LayerCount: 2
Fore
SplineSet
584 -24 m 0
 409 -24 263 20 150 111 c 1
 195 207 l 1
 282 137 403 83 590 83 c 0
 808 83 949 244 949 478 c 0
 949 676 821 823 655 823 c 0
 528 823 458 789 356 711 c 1
 231 720 l 1
 265 1488 l 1
 1026 1488 l 1
 1013 1377 l 1
 374 1377 l 1
 344 832 l 1
 437 902 531 929 631 931 c 0
 915 936 1088 722 1088 483 c 0
 1088 179 894 -24 584 -24 c 0
EndSplineSet
EndChar

StartChar: fj
Encoding: 405 -1 181
Width: 1195
VWidth: 0
Flags: HW
LayerCount: 2
Fore
SplineSet
929 1321 m 1
 929 1488 l 1
 1054 1488 l 1
 1054 1321 l 1
 929 1321 l 1
710 -550 m 1
 691 -450 l 1
 740 -450 l 2
 930 -450 929 -384 929 -219 c 2
 929 1005 l 1
 346 1005 l 1
 346 0 l 1
 222 0 l 1
 222 1005 l 1
 42 1005 l 1
 50 1082 l 1
 222 1096 l 1
 222 1137 l 2
 222 1428 324 1549 529 1549 c 0
 580 1549 622 1543 682 1534 c 1
 673 1452 l 1
 629 1457 587 1463 543 1463 c 0
 388 1463 346 1372 346 1131 c 2
 346 1096 l 1
 1054 1096 l 1
 1054 -247 l 2
 1054 -488 996 -550 759 -550 c 2
 710 -550 l 1
EndSplineSet
LCarets2: 1 0 
Ligature2: "'liga'" f j
EndChar

StartChar: florin
Encoding: 397 402 182
Width: 957
VWidth: 0
Flags: HW
LayerCount: 2
Fore
SplineSet
103 -359 m 0
 81 -359 37 -349 13 -335 c 1
 36 -247 l 1
 36 -247 65 -260 98 -260 c 0
 184 -260 227 -142 252 -11 c 0
 259 26 412 955 412 955 c 1
 244 955 l 1
 253 1046 l 1
 434 1046 l 1
 462 1231 l 1
 491 1415 546 1588 754 1588 c 0
 788 1588 809 1586 867 1568 c 1
 860 1471 l 1
 824 1485 793 1491 766 1491 c 0
 667 1491 613 1401 595 1287 c 2
 558 1046 l 1
 761 1046 l 1
 751 956 l 1
 540 956 l 1
 395 84 l 2
 349 -194 310 -359 103 -359 c 0
EndSplineSet
EndChar

StartChar: four
Encoding: 20 52 183
Width: 1225
VWidth: 0
Flags: HW
LayerCount: 2
Fore
SplineSet
817 0 m 1
 817 402 l 1
 135 402 l 1
 135 538 l 1
 821 1488 l 1
 941 1488 l 1
 941 512 l 1
 1127 512 l 1
 1112 402 l 1
 941 402 l 1
 941 0 l 1
 817 0 l 1
272 512 m 1
 817 512 l 1
 817 1281 l 1
 272 512 l 1
EndSplineSet
EndChar

StartChar: fraction
Encoding: 371 8260 184
Width: 1140
VWidth: 0
Flags: HW
LayerCount: 2
Fore
SplineSet
81 0 m 1
 946 1597 l 1
 1045 1597 l 1
 181 0 l 1
 81 0 l 1
EndSplineSet
EndChar

StartChar: g
Encoding: 71 103 185
Width: 1210
VWidth: 0
Flags: HW
LayerCount: 2
Fore
SplineSet
331 -509 m 1
 316 -398 l 1
 548 -398 l 2
 912 -398 934 -187 934 124 c 1
 934 97 927 198 927 198 c 1
 849 80 742 0 568 0 c 0
 227 0 106 318 106 539 c 0
 106 817 223 1116 592 1116 c 0
 730 1116 834 1065 927 942 c 1
 939 1096 l 1
 1049 1096 l 1
 1049 80 l 2
 1049 -151 1043 -509 532 -509 c 2
 331 -509 l 1
584 101 m 0
 835 101 928 309 927 499 c 1
 927 613 l 2
 927 812 834 1017 581 1016 c 5
 325 1016 239 758 239 537 c 0
 239 347 313 101 584 101 c 0
EndSplineSet
EndChar

StartChar: gcommaaccent
Encoding: 219 291 188
Width: 1183
VWidth: 0
Flags: HW
LayerCount: 2
Fore
SplineSet
525 1275 m 1
 690 1762 l 1
 788 1762 l 1
 678 1275 l 1
 525 1275 l 1
EndSplineSet
Refer: 185 103 N 1 0 0 1 17 0 2
EndChar

StartChar: germandbls
Encoding: 157 223 190
Width: 1234
VWidth: 0
Flags: HW
LayerCount: 2
Fore
SplineSet
144 0 m 1
 144 1060 l 2
 144 1360 274 1548 582 1548 c 0
 836 1548 977 1410 977 1205 c 0
 977 1008 835 970 671 864 c 1
 863 707 1171 614 1171 351 c 0
 1171 86 1012 0 804 0 c 2
 437 0 l 1
 449 108 l 1
 828 108 l 2
 969 108 1047 214 1047 347 c 0
 1047 520 741 668 616 755 c 1
 566 792 533 807 533 846 c 0
 533 870 538 908 597 945 c 0
 739 1034 857 1069 857 1218 c 0
 857 1354 768 1449 588 1449 c 0
 352 1449 272 1284 272 1082 c 2
 272 0 l 1
 144 0 l 1
EndSplineSet
EndChar

StartChar: grave
Encoding: 64 96 191
Width: 760
VWidth: 0
Flags: HW
LayerCount: 2
Fore
SplineSet
491 1287 m 1
 215 1674 l 1
 373 1674 l 1
 564 1287 l 1
 491 1287 l 1
EndSplineSet
EndChar

StartChar: greater
Encoding: 30 62 192
Width: 1201
VWidth: 0
Flags: HW
LayerCount: 2
Fore
SplineSet
132 122 m 1
 132 250 l 1
 938 622 l 1
 135 1042 l 1
 135 1165 l 1
 1089 656 l 1
 1089 577 l 1
 132 122 l 1
EndSplineSet
EndChar

StartChar: greaterequal
Encoding: 398 8805 193
Width: 1197
VWidth: 0
Flags: HW
LayerCount: 2
Fore
SplineSet
162 240 m 1
 162 365 l 1
 953 774 l 1
 167 1217 l 1
 167 1341 l 1
 1069 809 l 1
 1069 741 l 1
 162 240 l 1
127 12 m 1
 127 130 l 1
 1091 131 l 1
 1091 12 l 1
 127 12 l 1
EndSplineSet
EndChar

StartChar: guillemotleft
Encoding: 106 171 194
Width: 997
VWidth: 0
Flags: HW
LayerCount: 2
Fore
SplineSet
409 157 m 1
 159 503 l 1
 125 553 l 1
 412 959 l 1
 526 935 l 1
 255 561 l 1
 521 182 l 1
 409 157 l 1
770 157 m 1
 478 573 l 1
 772 959 l 1
 867 935 l 1
 615 561 l 1
 864 182 l 1
 770 157 l 1
EndSplineSet
EndChar

StartChar: guillemotright
Encoding: 121 187 195
Width: 972
VWidth: 0
Flags: HW
LayerCount: 2
Fore
SplineSet
208 157 m 1
 113 182 l 1
 365 562 l 1
 115 935 l 1
 208 959 l 1
 502 547 l 1
 208 157 l 1
580 157 m 1
 471 182 l 1
 737 562 l 1
 476 935 l 1
 583 959 l 1
 860 547 l 1
 580 157 l 1
EndSplineSet
EndChar

StartChar: guilsinglleft
Encoding: 369 8249 196
Width: 684
VWidth: 0
Flags: HW
LayerCount: 2
Fore
SplineSet
397 187 m 1
 175 593 l 1
 402 993 l 1
 513 993 l 1
 295 593 l 1
 508 187 l 1
 397 187 l 1
EndSplineSet
EndChar

StartChar: guilsinglright
Encoding: 370 8250 197
Width: 680
VWidth: 0
Flags: HW
LayerCount: 2
Fore
SplineSet
180 187 m 1
 398 595 l 1
 186 993 l 1
 297 993 l 1
 518 595 l 1
 292 187 l 1
 180 187 l 1
EndSplineSet
EndChar

StartChar: h
Encoding: 72 104 198
Width: 1195
VWidth: 0
Flags: HW
LayerCount: 2
Fore
SplineSet
172 0 m 1
 172 1521 l 1
 296 1532 l 1
 296 1009 l 2
 296 949 295 993 293 930 c 1
 385 1058 516 1116 677 1116 c 0
 929 1116 1034 956 1034 685 c 2
 1034 0 l 1
 911 0 l 1
 911 661 l 2
 911 899 851 1015 653 1015 c 4
 458 1015 326 896 298 741 c 1
 296 701 296 660 296 622 c 2
 296 0 l 1
 172 0 l 1
EndSplineSet
EndChar

StartChar: hbar
Encoding: 223 295 199
Width: 1099
VWidth: 0
Flags: HW
LayerCount: 2
Fore
SplineSet
121 0 m 1
 121 1300 l 1
 32 1300 l 1
 32 1403 l 1
 121 1403 l 1
 121 1486 l 1
 250 1507 l 1
 250 1403 l 1
 516 1403 l 1
 516 1300 l 1
 250 1300 l 1
 250 933 l 1
 344 1056 481 1127 656 1127 c 0
 894 1127 971 920 971 662 c 2
 971 0 l 1
 843 0 l 1
 843 593 l 2
 843 883 809 1015 604 1015 c 0
 416 1015 267 859 250 750 c 1
 250 0 l 1
 121 0 l 1
EndSplineSet
EndChar

StartChar: hungarumlaut
Encoding: 347 733 201
Width: 781
VWidth: 0
Flags: HW
LayerCount: 2
Fore
SplineSet
137 1328 m 1
 313 1646 l 1
 433 1646 l 1
 220 1328 l 1
 137 1328 l 1
334 1328 m 1
 516 1646 l 1
 631 1646 l 1
 422 1328 l 1
 334 1328 l 1
EndSplineSet
EndChar

StartChar: hyphen
Encoding: 13 45 202
Width: 700
VWidth: 0
Flags: HW
LayerCount: 2
Fore
SplineSet
108 531 m 1
 108 641 l 1
 592 641 l 1
 592 531 l 1
 108 531 l 1
EndSplineSet
EndChar

StartChar: i
Encoding: 73 105 203
Width: 497
VWidth: 0
Flags: HW
PickledData: "(dp1
S'com.typemytype.robofont.layerData'
p2
(dp3
s."
LayerCount: 2
Fore
SplineSet
198 0 m 1
 198 1096 l 1
 323 1096 l 1
 323 0 l 1
 198 0 l 1
198 1320 m 1
 198 1488 l 1
 322 1488 l 1
 322 1320 l 1
 198 1320 l 1
EndSplineSet
EndChar

StartChar: j
Encoding: 74 106 213
Width: 414
VWidth: 0
Flags: HW
LayerCount: 2
Fore
SplineSet
-71 -550 m 1
 -90 -450 l 1
 -41 -450 l 2
 149 -450 148 -384 148 -219 c 2
 148 1096 l 1
 273 1096 l 1
 273 -247 l 2
 273 -488 215 -550 -22 -550 c 2
 -71 -550 l 1
148 1321 m 1
 148 1488 l 1
 273 1488 l 1
 273 1321 l 1
 148 1321 l 1
EndSplineSet
EndChar

StartChar: k
Encoding: 75 107 215
Width: 1011
VWidth: 0
Flags: HW
LayerCount: 2
Fore
SplineSet
174 0 m 1
 174 1522 l 1
 297 1532 l 1
 297 663 l 1
 297 568 l 1
 313 588 405 686 423 707 c 1
 551 841 802 1096 802 1096 c 1
 969 1096 l 1
 510 638 l 1
 1001 0 l 1
 844 0 l 1
 425 568 l 1
 297 450 l 1
 297 0 l 1
 174 0 l 1
EndSplineSet
EndChar

StartChar: kgreenlandic
Encoding: 240 312 217
Width: 1011
VWidth: 0
Flags: HW
LayerCount: 2
Fore
SplineSet
174 0 m 1
 174 1096 l 1
 297 1096 l 1
 297 541 l 1
 313 561 405 659 423 680 c 0
 551 823 802 1096 802 1096 c 1
 969 1096 l 1
 510 611 l 1
 1001 0 l 1
 844 0 l 1
 425 541 l 1
 297 423 l 1
 297 0 l 1
 174 0 l 1
EndSplineSet
EndChar

StartChar: l
Encoding: 76 108 218
Width: 606
VWidth: 0
Flags: HW
PickledData: "(dp1
S'com.typemytype.robofont.layerData'
p2
(dp3
s."
LayerCount: 2
Fore
SplineSet
450 -18 m 4
 268 -18 184 53 184 243 c 2
 184 1522 l 1
 306 1532 l 1
 306 250 l 2
 306 109 362 79 453 79 c 4
 514 79 560 86 603 97 c 1
 608 1 l 1
 567 -9 489 -18 450 -18 c 4
EndSplineSet
EndChar

StartChar: lcaron
Encoding: 388 318 220
Width: 538
VWidth: 0
Flags: HW
LayerCount: 2
Fore
SplineSet
764 1082 m 1
 902 1532 l 1
 1038 1532 l 1
 868 1082 l 1
 764 1082 l 1
EndSplineSet
Refer: 218 108 N 1 0 0 1 30 0 2
EndChar

StartChar: less
Encoding: 28 60 223
Width: 1199
VWidth: 0
Flags: HW
LayerCount: 2
Fore
SplineSet
1068 113 m 1
 114 579 l 1
 114 658 l 1
 1070 1158 l 1
 1070 1032 l 1
 263 622 l 1
 1068 240 l 1
 1068 113 l 1
EndSplineSet
EndChar

StartChar: lessequal
Encoding: 400 8804 224
Width: 1195
VWidth: 0
Flags: HW
LayerCount: 2
Fore
SplineSet
1036 237 m 1
 138 736 l 1
 138 809 l 1
 1036 1338 l 1
 1036 1214 l 1
 253 780 l 1
 1036 362 l 1
 1036 237 l 1
98 12 m 1
 98 131 l 1
 1070 130 l 1
 1070 12 l 1
 98 12 l 1
EndSplineSet
EndChar

StartChar: logicalnot
Encoding: 107 172 225
Width: 1232
VWidth: 0
Flags: HW
LayerCount: 2
Fore
SplineSet
984 268 m 1
 984 707 l 1
 116 707 l 1
 116 817 l 1
 1093 817 l 1
 1093 268 l 1
 984 268 l 1
EndSplineSet
EndChar

StartChar: lozenge
Encoding: 401 9674 226
Width: 1130
VWidth: 0
Flags: HW
LayerCount: 2
Fore
SplineSet
510 -49 m 1
 96 791 l 1
 517 1635 l 1
 619 1635 l 1
 1033 794 l 1
 610 -49 l 1
 510 -49 l 1
558 77 m 1
 682 312 805 550 930 791 c 1
 811 1027 689 1262 571 1502 c 1
 445 1270 324 1032 198 793 c 1
 319 556 433 311 558 77 c 1
EndSplineSet
EndChar

StartChar: lslash
Encoding: 247 322 227
Width: 548
VWidth: 0
Flags: HW
LayerCount: 2
Fore
SplineSet
400 -25 m 0
 156 -25 148 87 148 474 c 2
 148 493 l 1
 36 394 l 1
 36 514 l 1
 148 613 l 1
 148 1487 l 1
 277 1507 l 1
 277 729 l 1
 461 892 l 1
 461 770 l 1
 277 608 l 1
 277 427 l 2
 277 159 279 76 416 76 c 0
 449 76 504 82 569 88 c 1
 584 -12 l 1
 517 -20 407 -25 400 -25 c 0
EndSplineSet
EndChar

StartChar: m
Encoding: 77 109 228
Width: 1851
VWidth: 0
Flags: HW
LayerCount: 2
Fore
SplineSet
175 0 m 1
 175 0 172 994 172 1096 c 1
 280 1096 l 1
 296 928 l 1
 359 1035 496 1116 642 1116 c 0
 864 1116 942 1001 972 909 c 1
 1054 1054 1183 1116 1341 1116 c 0
 1585 1116 1690 973 1690 708 c 2
 1690 0 l 1
 1566 0 l 1
 1566 536 l 2
 1566 797 1551 1015 1335 1015 c 0
 1167 1015 1050 918 1005 739 c 1
 1005 568 l 1
 1005 0 l 1
 882 0 l 1
 882 558 l 2
 882 817 848 1015 647 1015 c 0
 463 1015 336 904 301 740 c 1
 299 699 299 661 299 623 c 2
 299 0 l 1
 175 0 l 1
EndSplineSet
EndChar

StartChar: macron
Encoding: 110 175 229
Width: 1216
VWidth: 0
Flags: HW
LayerCount: 2
Fore
SplineSet
298 1270 m 1
 298 1376 l 1
 916 1376 l 1
 916 1270 l 1
 298 1270 l 1
EndSplineSet
EndChar

StartChar: middot
Encoding: -1 183 230
Width: 468
VWidth: 0
Flags: W
LayerCount: 2
Fore
SplineSet
150 561 m 1
 318 561 l 1
 318 759 l 1
 150 759 l 1
 150 561 l 1
EndSplineSet
EndChar

StartChar: multiply
Encoding: 149 215 231
Width: 1155
VWidth: 0
Flags: HW
LayerCount: 2
Fore
SplineSet
893 261 m 1
 586 569 l 1
 278 262 l 1
 201 339 l 1
 509 646 l 1
 202 954 l 1
 279 1031 l 1
 586 723 l 1
 894 1030 l 1
 971 953 l 1
 663 646 l 1
 970 338 l 1
 893 261 l 1
EndSplineSet
EndChar

StartChar: n
Encoding: 78 110 232
Width: 1198
VWidth: 0
Flags: HW
PickledData: "(dp1
S'com.typemytype.robofont.layerData'
p2
(dp3
s."
LayerCount: 2
Fore
SplineSet
172 0 m 1
 172 1096 l 1
 280 1096 l 1
 297 927 l 1
 375 1044 517 1116 670 1116 c 0
 920 1116 1037 987 1037 680 c 2
 1037 0 l 1
 912 0 l 1
 912 736 l 1
 905 929 838 1015 663 1015 c 0
 457 1015 331 893 301 741 c 1
 298 706 297 673 297 643 c 2
 297 0 l 1
 172 0 l 1
EndSplineSet
EndChar

StartChar: nine
Encoding: 25 57 236
Width: 1171
VWidth: 0
Flags: HW
LayerCount: 2
Fore
SplineSet
280 0 m 1
 839 677 l 1
 766 630 665 596 572 596 c 0
 332 596 108 769 108 1046 c 0
 108 1299 293 1514 596 1514 c 0
 914 1514 1071 1285 1071 1030 c 0
 1071 825 1018 733 839 478 c 0
 839 477 443 0 443 0 c 1
 280 0 l 1
592 704 m 0
 837 704 947 873 947 1050 c 0
 947 1234 829 1407 599 1407 c 0
 371 1407 234 1227 234 1047 c 0
 234 852 373 704 592 704 c 0
EndSplineSet
EndChar

StartChar: notequal
Encoding: 402 8800 237
Width: 1166
VWidth: 0
Flags: HW
LayerCount: 2
Fore
SplineSet
353 50 m 1
 263 68 l 1
 380 378 l 1
 122 378 l 1
 116 479 l 1
 436 479 l 1
 602 823 l 1
 122 823 l 1
 114 930 l 1
 652 930 l 1
 795 1243 l 1
 887 1231 l 1
 771 931 l 1
 1048 931 l 1
 1055 823 l 1
 722 823 l 1
 551 479 l 1
 1050 479 l 1
 1055 378 l 1
 500 378 l 1
 353 50 l 1
EndSplineSet
EndChar

StartChar: numbersign
Encoding: 3 35 239
Width: 1146
VWidth: 0
Flags: HW
LayerCount: 2
Fore
SplineSet
198 -1 m 1
 272 438 l 1
 127 438 l 1
 137 529 l 1
 288 529 l 1
 366 975 l 1
 203 975 l 1
 213 1065 l 1
 381 1065 l 1
 455 1488 l 1
 559 1488 l 1
 485 1065 l 1
 755 1065 l 1
 829 1488 l 1
 933 1488 l 1
 859 1065 l 1
 1002 1065 l 1
 987 976 l 1
 844 976 l 1
 765 529 l 1
 920 529 l 1
 910 438 l 1
 750 438 l 1
 673 -1 l 1
 568 -1 l 1
 646 438 l 1
 376 438 l 1
 299 -1 l 1
 198 -1 l 1
392 529 m 1
 662 529 l 1
 739 976 l 1
 470 976 l 1
 392 529 l 1
EndSplineSet
EndChar

StartChar: o
Encoding: 79 111 240
Width: 1221
VWidth: 0
Flags: HW
LayerCount: 2
Fore
SplineSet
617 75 m 0
 865 75 977 282 977 545 c 0
 977 811 871 1015 613 1015 c 0
 365 1015 246 805 246 542 c 0
 246 283 366 75 617 75 c 0
608 -24 m 0
 303 -24 113 222 113 545 c 0
 113 870 301 1116 616 1116 c 0
 932 1116 1109 869 1109 547 c 0
 1109 222 926 -24 608 -24 c 0
EndSplineSet
EndChar

StartChar: oe
Encoding: 261 339 245
Width: 1961
VWidth: 0
Flags: HW
LayerCount: 2
Fore
SplineSet
602 -24 m 0
 297 -24 113 222 113 545 c 0
 113 870 295 1116 610 1116 c 0
 825 1116 967 1002 1036 828 c 1
 1106 1004 1246 1112 1435 1116 c 1
 1691 1116 1852 919 1852 608 c 0
 1852 590 1851 554 1851 533 c 1
 1098 533 l 1
 1101 250 1246 75 1464 75 c 0
 1632 75 1708 131 1805 179 c 1
 1826 78 l 1
 1720 13 1619 -24 1461 -24 c 0
 1252 -24 1105 83 1035 264 c 1
 964 90 818 -24 602 -24 c 0
611 75 m 0
 859 75 967 282 967 545 c 0
 967 811 865 1015 607 1015 c 0
 359 1015 246 805 246 542 c 0
 246 283 360 75 611 75 c 0
1103 633 m 1
 1717 633 l 1
 1717 637 1717 640 1717 644 c 0
 1714 885 1608 1011 1431 1011 c 0
 1240 1011 1124 853 1103 633 c 1
EndSplineSet
EndChar

StartChar: ogonek
Encoding: 345 731 246
Width: 640
VWidth: 0
Flags: HW
LayerCount: 2
Fore
SplineSet
327 -437 m 0
 221 -437 140 -370 140 -258 c 0
 140 -163 238 -77 353 -14 c 5
 448 -14 l 1
 335 -100 242 -175 242 -246 c 0
 242 -307 297 -337 333 -337 c 0
 383 -337 399 -338 467 -307 c 1
 467 -408 l 1
 439 -419 376 -437 327 -437 c 0
EndSplineSet
EndChar

StartChar: one
Encoding: 17 49 250
Width: 636
VWidth: 0
Flags: HW
LayerCount: 2
Fore
SplineSet
280 0 m 1
 280 1356 l 1
 241 1328 137 1275 40 1241 c 1
 40 1349 l 1
 127 1389 252 1447 303 1488 c 1
 408 1488 l 1
 408 0 l 1
 280 0 l 1
EndSplineSet
EndChar

StartChar: onehalf
Encoding: 123 189 251
Width: 1522
VWidth: 0
Flags: HW
LayerCount: 2
Fore
SplineSet
172 681 m 1
 172 747 l 1
 276 747 l 1
 276 1416 l 1
 241 1390 221 1379 162 1344 c 1
 162 1425 l 1
 181 1436 254 1477 284 1514 c 1
 369 1514 l 1
 369 747 l 1
 476 747 l 1
 476 681 l 1
 172 681 l 1
915 0 m 1
 915 77 l 1
 1271 458 1372 574 1372 679 c 0
 1372 777 1292 832 1215 832 c 0
 1145 832 1078 807 1014 704 c 1
 932 735 l 1
 983 857 1096 920 1212 920 c 0
 1349 920 1475 832 1475 671 c 0
 1475 492 1294 347 1044 82 c 1
 1458 82 l 1
 1466 0 l 1
 915 0 l 1
293 0 m 1
 1181 1514 l 1
 1274 1514 l 1
 393 0 l 1
 293 0 l 1
EndSplineSet
EndChar

StartChar: onequarter
Encoding: 122 188 252
Width: 1590
VWidth: 0
Flags: HW
LayerCount: 2
Fore
SplineSet
172 681 m 1
 172 747 l 1
 276 747 l 1
 276 1416 l 1
 241 1390 221 1379 162 1344 c 1
 162 1425 l 1
 181 1436 254 1477 284 1514 c 1
 369 1514 l 1
 369 747 l 1
 476 747 l 1
 476 681 l 1
 172 681 l 1
1293 0 m 1
 1293 218 l 1
 918 218 l 1
 918 289 l 1
 1293 861 l 1
 1386 861 l 1
 1386 300 l 1
 1478 300 l 1
 1486 218 l 1
 1386 218 l 1
 1386 0 l 1
 1293 0 l 1
304 0 m 1
 1192 1514 l 1
 1285 1514 l 1
 404 0 l 1
 304 0 l 1
1018 300 m 1
 1293 300 l 1
 1293 300 1292 685 1293 727 c 1
 1018 300 l 1
EndSplineSet
EndChar

StartChar: ordfeminine
Encoding: 105 170 253
Width: 876
VWidth: 0
Flags: HW
LayerCount: 2
Fore
SplineSet
381 892 m 0
 281 892 156 953 156 1088 c 0
 156 1268 342 1304 583 1326 c 1
 583 1349 l 2
 583 1476 551 1547 447 1547 c 0
 371 1547 256 1520 201 1481 c 1
 164 1554 l 1
 250 1605 338 1624 451 1624 c 0
 573 1624 679 1561 679 1371 c 2
 679 1027 l 1
 679 902 l 1
 618 902 l 1
 595 1010 l 1
 556 929 472 892 381 892 c 0
386 968 m 2
 392 968 l 1
 512 971 586 1064 586 1217 c 2
 586 1256 l 1
 482 1249 255 1235 255 1101 c 2
 255 1098 l 1
 257 1007 307 968 386 968 c 2
167 720 m 1
 167 798 l 1
 705 798 l 1
 705 720 l 1
 167 720 l 1
EndSplineSet
EndChar

StartChar: oslash
Encoding: 182 248 254
Width: 1221
VWidth: 0
Flags: HW
LayerCount: 2
Fore
SplineSet
300 -311 m 1
 236 -283 l 1
 367 38 l 1
 206 130 113 319 113 545 c 0
 113 870 301 1116 616 1116 c 0
 681 1116 741 1105 794 1086 c 1
 926 1410 l 1
 995 1386 l 1
 860 1055 l 1
 1021 963 1109 773 1109 547 c 0
 1109 222 926 -24 608 -24 c 0
 543 -24 484 -13 430 7 c 1
 300 -311 l 1
408 139 m 1
 755 990 l 1
 714 1006 667 1015 613 1015 c 0
 365 1015 246 805 246 542 c 0
 246 370 299 220 408 139 c 1
617 75 m 0
 865 75 977 282 977 545 c 0
 977 724 929 875 818 955 c 1
 470 104 l 1
 513 85 562 75 617 75 c 0
EndSplineSet
EndChar

StartChar: p
Encoding: 80 112 256
Width: 1215
VWidth: 0
Flags: HW
LayerCount: 2
Fore
SplineSet
172 -488 m 1
 172 1096 l 1
 283 1096 l 1
 294 940 l 1
 389 1049 486 1116 636 1116 c 0
 959 1116 1103 881 1103 535 c 0
 1103 213 932 -24 647 -24 c 0
 501 -24 364 52 291 161 c 1
 294 87 296 7 296 -81 c 2
 296 -479 l 1
 172 -488 l 1
639 75 m 4
 875 75 973 321 973 544 c 0
 973 768 878 1015 638 1015 c 0
 383 1015 295 818 295 563 c 0
 295 273 374 75 639 75 c 4
EndSplineSet
EndChar

StartChar: paragraph
Encoding: 116 182 257
Width: 1032
VWidth: 0
Flags: HW
LayerCount: 2
Fore
SplineSet
508 0 m 1
 508 0 506 863 505 863 c 0
 237 863 94 1034 94 1201 c 0
 94 1360 224 1514 501 1514 c 2
 939 1514 l 1
 939 1417 l 1
 867 1417 l 1
 867 0 l 1
 775 0 l 1
 775 1417 l 1
 602 1417 l 1
 602 0 l 1
 508 0 l 1
EndSplineSet
EndChar

StartChar: parenleft
Encoding: 8 40 258
Width: 623
VWidth: 0
Flags: HW
LayerCount: 2
Fore
SplineSet
397 -239 m 1
 228 -5 126 316 126 627 c 0
 126 951 221 1254 394 1514 c 1
 513 1514 l 1
 319 1185 260 924 260 633 c 0
 260 366 325 74 513 -239 c 1
 397 -239 l 1
EndSplineSet
EndChar

StartChar: parenright
Encoding: 9 41 259
Width: 623
VWidth: 0
Flags: HW
LayerCount: 2
Fore
SplineSet
111 -239 m 1
 298 73 364 365 364 633 c 0
 364 924 304 1185 110 1514 c 1
 228 1514 l 1
 400 1253 498 949 498 627 c 0
 498 313 394 -4 226 -239 c 1
 111 -239 l 1
EndSplineSet
EndChar

StartChar: period
Encoding: 14 46 260
Width: 567
VWidth: 0
Flags: HW
PickledData: "(dp1
S'com.typemytype.robofont.layerData'
p2
(dp3
s."
LayerCount: 2
Fore
SplineSet
321 -8 m 0
 244 -8 214 47 214 96 c 0
 214 144 244 199 321 199 c 0
 400 199 430 144 430 96 c 0
 430 47 400 -8 321 -8 c 0
EndSplineSet
EndChar

StartChar: periodcentered
Encoding: 117 183 261
Width: 545
VWidth: 0
Flags: HW
LayerCount: 2
Fore
SplineSet
199 610 m 1
 199 772 l 1
 349 772 l 1
 349 610 l 1
 199 610 l 1
EndSplineSet
EndChar

StartChar: plus
Encoding: 11 43 262
Width: 1136
VWidth: 0
Flags: HW
LayerCount: 2
Fore
SplineSet
518 157 m 1
 518 600 l 1
 126 600 l 1
 126 700 l 1
 520 700 l 1
 520 1135 l 1
 628 1135 l 1
 628 700 l 1
 1010 700 l 1
 1010 600 l 1
 628 600 l 1
 628 157 l 1
 518 157 l 1
EndSplineSet
EndChar

StartChar: plusminus
Encoding: 112 177 263
Width: 1194
VWidth: 0
Flags: HW
LayerCount: 2
Fore
SplineSet
542 215 m 1
 542 654 l 1
 111 654 l 1
 111 765 l 1
 541 765 l 1
 541 1213 l 1
 648 1213 l 1
 648 765 l 1
 1083 765 l 1
 1083 654 l 1
 651 654 l 1
 651 215 l 1
 542 215 l 1
111 0 m 1
 111 121 l 1
 1086 121 l 1
 1086 0 l 1
 111 0 l 1
EndSplineSet
EndChar

StartChar: q
Encoding: 81 113 264
Width: 1219
VWidth: 0
Flags: HW
LayerCount: 2
Fore
SplineSet
924 -488 m 1
 924 13 l 2
 924 74 926 124 929 165 c 1
 846 33 691 -24 570 -24 c 0
 274 -24 113 214 113 532 c 0
 113 874 272 1116 578 1116 c 0
 718 1116 835 1050 929 931 c 1
 937 1096 l 1
 1048 1096 l 1
 1048 -481 l 1
 924 -488 l 1
570 75 m 4
 826 75 918 266 921 525 c 1
 921 813 833 1015 569 1015 c 0
 325 1015 244 767 244 544 c 0
 244 309 325 75 570 75 c 4
EndSplineSet
EndChar

StartChar: question
Encoding: 31 63 265
Width: 886
VWidth: 0
Flags: HW
LayerCount: 2
Fore
SplineSet
328 395 m 1
 311 592 623 914 623 1174 c 1
 621 1317 530 1410 396 1410 c 0
 283 1410 174 1356 131 1330 c 1
 97 1426 l 1
 182 1485 321 1517 408 1517 c 0
 630 1517 756 1364 756 1173 c 0
 756 931 541 748 393 395 c 1
 328 395 l 1
377 -1 m 0
 305 -1 276 50 276 96 c 0
 276 141 305 192 377 192 c 0
 450 192 478 141 478 96 c 0
 478 50 450 -1 377 -1 c 0
EndSplineSet
EndChar

StartChar: quotedbl
Encoding: 2 34 267
Width: 724
VWidth: 0
Flags: HW
LayerCount: 2
Fore
SplineSet
193 1034 m 1
 178 1514 l 1
 296 1514 l 1
 264 1034 l 1
 193 1034 l 1
452 1034 m 1
 437 1514 l 1
 555 1514 l 1
 523 1034 l 1
 452 1034 l 1
EndSplineSet
EndChar

StartChar: quotedblbase
Encoding: 366 8222 268
Width: 770
VWidth: 0
Flags: HW
LayerCount: 2
Fore
SplineSet
130 -240 m 1
 211 218 l 1
 340 218 l 1
 223 -240 l 1
 130 -240 l 1
428 -240 m 1
 506 218 l 1
 640 218 l 1
 517 -240 l 1
 428 -240 l 1
EndSplineSet
EndChar

StartChar: quotedblleft
Encoding: 364 8220 269
Width: 891
VWidth: 0
Flags: HW
LayerCount: 2
Fore
SplineSet
121 1161 m 1
 358 1619 l 1
 437 1619 l 1
 276 1161 l 1
 121 1161 l 1
436 1161 m 1
 670 1619 l 1
 749 1619 l 1
 590 1161 l 1
 436 1161 l 1
EndSplineSet
EndChar

StartChar: quotedblright
Encoding: 365 8221 270
Width: 758
VWidth: 0
Flags: HW
LayerCount: 2
Fore
SplineSet
132 1161 m 1
 219 1619 l 1
 354 1619 l 1
 225 1161 l 1
 132 1161 l 1
413 1161 m 1
 500 1619 l 1
 638 1619 l 1
 511 1161 l 1
 413 1161 l 1
EndSplineSet
EndChar

StartChar: quoteleft
Encoding: 361 8216 271
Width: 578
VWidth: 0
Flags: HW
LayerCount: 2
Fore
SplineSet
121 1161 m 1
 361 1619 l 1
 437 1619 l 1
 275 1161 l 1
 121 1161 l 1
EndSplineSet
EndChar

StartChar: quoteright
Encoding: 362 8217 272
Width: 584
VWidth: 0
Flags: HW
LayerCount: 2
Fore
SplineSet
193 1161 m 1
 279 1619 l 1
 409 1619 l 1
 286 1161 l 1
 193 1161 l 1
EndSplineSet
EndChar

StartChar: quotesinglbase
Encoding: 363 8218 273
Width: 522
VWidth: 0
Flags: HW
LayerCount: 2
Fore
SplineSet
151 -240 m 1
 236 218 l 1
 370 218 l 1
 248 -240 l 1
 151 -240 l 1
EndSplineSet
EndChar

StartChar: quotesingle
Encoding: 7 39 274
Width: 461
VWidth: 0
Flags: HW
LayerCount: 2
Fore
SplineSet
175 1020 m 1
 160 1514 l 1
 290 1514 l 1
 270 1020 l 1
 175 1020 l 1
EndSplineSet
EndChar

StartChar: r
Encoding: 82 114 275
Width: 744
VWidth: 0
Flags: HW
LayerCount: 2
Fore
SplineSet
174 0 m 1
 174 0 172 965 172 1096 c 1
 274 1096 l 1
 282 880 l 1
 357 1005 486 1102 622 1102 c 0
 654 1102 683 1099 710 1095 c 1
 701 992 l 1
 671 997 647 998 625 998 c 0
 437 998 297 825 297 629 c 2
 297 0 l 1
 174 0 l 1
EndSplineSet
EndChar

StartChar: registered
Encoding: 109 174 279
Width: 1909
VWidth: 0
Flags: HW
LayerCount: 2
Fore
SplineSet
644 212 m 1
 644 1202 l 1
 987 1202 l 2
 1223 1202 1323 1099 1323 936 c 0
 1323 825 1266 694 1079 678 c 1
 1143 589 1212 471 1370 212 c 1
 1235 212 l 1
 1153 353 1037 551 962 658 c 1
 756 658 l 1
 756 212 l 1
 644 212 l 1
757 754 m 1
 962 754 l 2
 1126 754 1211 789 1211 924 c 0
 1211 1076 1140 1107 952 1107 c 2
 757 1107 l 1
 757 754 l 1
948 -24 m 0
 1294 -23 1636 217 1635 694 c 1
 1635 1176 1283 1424 936 1424 c 0
 597 1424 262 1188 262 701 c 0
 262 216 605 -24 948 -24 c 0
945 -116 m 0
 547 -116 150 154 150 698 c 0
 150 1246 543 1514 939 1514 c 0
 1341 1514 1747 1238 1747 698 c 0
 1747 157 1346 -116 945 -116 c 0
EndSplineSet
EndChar

StartChar: ring
Encoding: 344 730 280
Width: 663
VWidth: 0
Flags: HW
PickledData: "(dp1
S'com.fontlab.hintData'
p2
(dp3
S'vhints'
p4
((dp5
S'position'
p6
I129
sS'width'
p7
I91
s(dp8
g6
I407
sg7
I88
stp9
sS'hhints'
p10
((dp11
g6
I1317
sg7
I71
s(dp12
g6
I1602
sg7
I71
stp13
ss."
HStem: 1317 71 1602 71<310.94 357.692>
VStem: 150 91<1458.76 1529.83 1458.76 1554.57> 428 88<1459.3 1494.8>
LayerCount: 2
Fore
SplineSet
335 1388 m 0
 382 1388 428 1424 428 1495 c 0
 427 1566 381 1602 334 1602 c 0
 287 1602 241 1566 241 1494 c 0
 241 1424 288 1388 335 1388 c 0
336 1317 m 0
 243 1317 150 1378 150 1495 c 0
 150 1615 241 1673 333 1673 c 0
 425 1673 516 1612 516 1495 c 0
 516 1375 426 1317 336 1317 c 0
EndSplineSet
EndChar

StartChar: s
Encoding: 83 115 281
Width: 983
VWidth: 0
Flags: HW
PickledData: "(dp1
S'com.typemytype.robofont.layerData'
p2
(dp3
s."
LayerCount: 2
Fore
SplineSet
489 -24 m 4
 337 -24 207 20 143 63 c 5
 161 167 l 5
 230 131 341 75 477 75 c 4
 648 75 758 143 758 282 c 4
 758 390 719 461 490 519 c 6
 395 543 l 6
 194 591 131 710 131 824 c 4
 131 966 262 1116 507 1116 c 4
 631 1116 738 1090 832 1048 c 5
 804 952 l 5
 719 984 609 1016 504 1016 c 4
 349 1016 255 939 255 822 c 4
 255 726 294 672 471 629 c 6
 569 605 l 6
 807 547 874 441 874 277 c 4
 874 82 715 -24 489 -24 c 4
EndSplineSet
EndChar

StartChar: semicolon
Encoding: 27 59 287
Width: 604
VWidth: 0
Flags: HW
LayerCount: 2
Fore
SplineSet
177 -302 m 1
 233 165 l 1
 395 165 l 1
 270 -302 l 1
 177 -302 l 1
222 928 m 1
 222 1136 l 1
 401 1136 l 1
 401 928 l 1
 222 928 l 1
EndSplineSet
EndChar

StartChar: seven
Encoding: 23 55 288
Width: 1097
VWidth: 0
Flags: HW
LayerCount: 2
Fore
SplineSet
295 0 m 1
 836 1377 l 1
 135 1377 l 1
 150 1488 l 1
 945 1488 l 1
 961 1365 l 1
 433 0 l 1
 295 0 l 1
EndSplineSet
EndChar

StartChar: six
Encoding: 22 54 289
Width: 1234
VWidth: 0
Flags: HW
LayerCount: 2
Fore
SplineSet
624 -24 m 0
 317 -24 141 219 141 473 c 0
 141 673 199 762 443 1081 c 0
 554 1227 795 1488 795 1488 c 1
 932 1488 l 1
 407 849 l 1
 486 894 561 916 666 916 c 0
 897 916 1104 713 1104 444 c 0
 1104 192 907 -24 624 -24 c 0
622 83 m 0
 839 83 975 264 975 443 c 0
 975 637 849 813 627 813 c 0
 392 813 273 643 273 448 c 0
 273 269 404 83 622 83 c 0
EndSplineSet
EndChar

StartChar: slash
Encoding: 15 47 290
Width: 976
VWidth: 0
Flags: HW
LayerCount: 2
Fore
SplineSet
57 -174 m 1
 758 1514 l 1
 871 1514 l 1
 169 -174 l 1
 57 -174 l 1
EndSplineSet
EndChar

StartChar: sterling
Encoding: 98 163 292
Width: 1149
VWidth: 0
Flags: HW
LayerCount: 2
Fore
SplineSet
116 0 m 1
 107 105 l 1
 245 153 292 275 292 436 c 2
 292 696 l 1
 106 696 l 1
 106 800 l 1
 292 800 l 1
 292 890 l 2
 292 1189 338 1515 708 1515 c 0
 854 1515 967 1462 1052 1390 c 1
 986 1303 l 1
 898 1374 808 1407 705 1407 c 0
 483 1407 420 1235 420 977 c 2
 420 800 l 1
 847 800 l 1
 847 695 l 1
 420 695 l 1
 420 526 l 2
 420 334 407 189 272 96 c 1
 400 103 406 114 531 114 c 2
 1056 114 l 1
 1070 0 l 1
 116 0 l 1
EndSplineSet
EndChar

StartChar: t
Encoding: 84 116 293
Width: 686
VWidth: 0
Flags: HW
LayerCount: 2
Fore
SplineSet
471 -18 m 0
 289 -18 196 53 196 243 c 2
 196 1005 l 1
 41 1005 l 1
 50 1080 l 1
 198 1094 l 1
 231 1345 l 1
 318 1351 l 1
 318 1096 l 1
 638 1096 l 1
 638 1005 l 1
 318 1005 l 1
 318 269 l 2
 318 108 368 76 490 76 c 0
 540 76 600 86 644 97 c 1
 649 1 l 1
 543 -20 510 -18 471 -18 c 0
EndSplineSet
EndChar

StartChar: thorn
Encoding: 188 254 296
Width: 1215
VWidth: 0
Flags: HW
LayerCount: 2
Fore
SplineSet
172 -488 m 1
 172 1514 l 1
 296 1514 l 1
 296 907 l 1
 340 992 456 1115 636 1116 c 1
 936 1116 1103 896 1103 560 c 0
 1103 238 953 -23 650 -23 c 0
 524 -23 370 37 296 183 c 1
 296 -479 l 1
 172 -488 l 1
646 78 m 0
 905 78 973 374 973 564 c 0
 973 743 902 1011 624 1011 c 0
 384 1011 295 791 295 564 c 0
 295 319 377 78 646 78 c 0
EndSplineSet
EndChar

StartChar: three
Encoding: 19 51 297
Width: 1160
VWidth: 0
Flags: HW
LayerCount: 2
Fore
SplineSet
891 404 m 0
 890 694 665 747 391 745 c 1
 391 857 l 1
 435 857 l 1
 638 864 851 904 851 1147 c 0
 851 1348 718 1407 559 1407 c 0
 425 1407 301 1368 228 1302 c 1
 182 1406 l 1
 260 1473 386 1514 594 1514 c 0
 781 1514 973 1407 973 1166 c 0
 973 957 871 852 712 804 c 1
 848 769 1016 680 1020 410 c 0
 1024 153 836 -24 557 -24 c 4
 360 -24 220 49 181 86 c 1
 228 189 l 1
 301 132 394 83 545 83 c 0
 752 83 891 195 891 404 c 0
EndSplineSet
EndChar

StartChar: threequarters
Encoding: 124 190 298
Width: 1639
VWidth: 0
Flags: HW
LayerCount: 2
Fore
SplineSet
380 625 m 0
 298 625 204 649 150 703 c 1
 188 771 l 1
 271 708 324 703 376 703 c 0
 458 703 539 768 539 863 c 0
 539 985 464 1035 346 1035 c 2
 257 1035 l 1
 257 1109 l 1
 337 1109 l 2
 433 1109 514 1149 508 1271 c 0
 504 1349 446 1408 357 1408 c 0
 297 1408 225 1384 195 1358 c 1
 154 1429 l 1
 195 1459 278 1484 356 1484 c 0
 482 1484 606 1427 606 1273 c 0
 606 1147 536 1111 473 1076 c 1
 576 1047 626 981 626 870 c 0
 626 709 517 625 380 625 c 0
1361 0 m 1
 1361 218 l 1
 986 218 l 1
 986 289 l 1
 1361 861 l 1
 1454 861 l 1
 1454 300 l 1
 1546 300 l 1
 1554 218 l 1
 1454 218 l 1
 1454 0 l 1
 1361 0 l 1
372 0 m 1
 1260 1514 l 1
 1353 1514 l 1
 472 0 l 1
 372 0 l 1
1086 300 m 1
 1361 300 l 1
 1361 300 1360 685 1361 727 c 1
 1086 300 l 1
EndSplineSet
EndChar

StartChar: tilde
Encoding: 346 732 299
Width: 989
VWidth: 0
Flags: HW
LayerCount: 2
Fore
SplineSet
175 1336 m 1
 179 1491 249 1522 334 1522 c 0
 418 1522 543 1426 598 1426 c 0
 644 1426 650 1487 654 1522 c 1
 745 1522 l 1
 739 1382 688 1336 604 1336 c 0
 523 1336 379 1439 326 1439 c 0
 283 1439 269 1387 265 1336 c 1
 175 1336 l 1
EndSplineSet
EndChar

StartChar: trademark
Encoding: 374 8482 300
Width: 1837
VWidth: 0
Flags: HW
LayerCount: 2
Fore
SplineSet
888 571 m 1
 888 1513 l 1
 1018 1513 l 1
 1309 758 l 1
 1614 1513 l 1
 1740 1513 l 1
 1740 571 l 1
 1647 571 l 1
 1647 1438 l 1
 1341 677 l 1
 1263 677 l 1
 975 1442 l 1
 975 571 l 1
 888 571 l 1
378 571 m 1
 378 1441 l 1
 116 1441 l 1
 116 1513 l 1
 741 1513 l 1
 741 1441 l 1
 468 1441 l 1
 468 571 l 1
 378 571 l 1
EndSplineSet
EndChar

StartChar: two
Encoding: 18 50 301
Width: 1186
VWidth: 0
Flags: HW
LayerCount: 2
Fore
SplineSet
149 0 m 1
 119 127 l 1
 638 731 l 1
 761 877 840 994 840 1116 c 0
 840 1302 753 1407 573 1407 c 0
 454 1407 319 1375 237 1297 c 1
 190 1394 l 1
 262 1463 386 1514 578 1514 c 0
 837 1514 990 1357 990 1133 c 0
 990 974 911 839 739 640 c 2
 289 123 l 1
 1002 123 l 1
 994 0 l 1
 149 0 l 1
EndSplineSet
EndChar

StartChar: u
Encoding: 85 117 302
Width: 1146
VWidth: 0
Flags: HW
PickledData: "(dp1
S'com.typemytype.robofont.layerData'
p2
(dp3
s."
LayerCount: 2
Fore
SplineSet
576 -24 m 0
 360 -24 144 64 144 350 c 2
 144 1096 l 1
 268 1096 l 1
 268 347 l 2
 268 130 410 75 576 75 c 0
 740 75 880 133 880 347 c 2
 880 1096 l 1
 1004 1096 l 1
 1004 350 l 2
 1004 60 792 -24 576 -24 c 0
EndSplineSet
EndChar

StartChar: underscore
Encoding: 63 95 310
Width: 1076
VWidth: 0
Flags: HW
LayerCount: 2
Fore
SplineSet
85 -108 m 1
 85 0 l 1
 990 0 l 1
 990 -108 l 1
 85 -108 l 1
EndSplineSet
EndChar

StartChar: uni00AD
Encoding: 108 173 311
Width: 1077
VWidth: 0
Flags: HW
LayerCount: 2
Fore
SplineSet
144 140 m 1
 144 255 l 1
 943 255 l 1
 943 140 l 1
 144 140 l 1
EndSplineSet
EndChar

StartChar: uni00B9
Encoding: 119 185 312
Width: 488
VWidth: 0
Flags: HW
LayerCount: 2
Fore
SplineSet
103 681 m 1
 103 747 l 1
 207 747 l 1
 207 1390 l 5
 172 1364 152 1353 93 1318 c 5
 93 1399 l 5
 112 1410 185 1451 215 1488 c 5
 300 1488 l 5
 300 747 l 1
 407 747 l 1
 407 681 l 1
 103 681 l 1
EndSplineSet
EndChar

StartChar: uni0237
Encoding: 339 567 353
Width: 408
VWidth: 0
Flags: HW
LayerCount: 2
Fore
SplineSet
-78 -594 m 1
 -107 -473 l 1
 -48 -473 l 2
 142 -473 142 -400 142 -237 c 2
 142 1104 l 1
 279 1104 l 1
 279 -296 l 2
 279 -533 225 -594 -20 -594 c 2
 -78 -594 l 1
EndSplineSet
EndChar

StartChar: uni0307
Encoding: 404 775 354
Width: 395
VWidth: 0
Flags: HW
LayerCount: 2
Fore
SplineSet
134 1357 m 1
 134 1525 l 1
 301 1525 l 1
 301 1357 l 1
 134 1357 l 1
EndSplineSet
EndChar

StartChar: uni030F
Encoding: 348 783 355
Width: 845
VWidth: 0
Flags: HW
LayerCount: 2
Fore
SplineSet
406 1300 m 1
 185 1633 l 1
 278 1633 l 1
 476 1300 l 1
 406 1300 l 1
630 1300 m 1
 406 1633 l 1
 508 1633 l 1
 692 1300 l 1
 630 1300 l 1
EndSplineSet
EndChar

StartChar: uni0311
Encoding: 349 785 356
Width: 846
VWidth: 0
Flags: HW
LayerCount: 2
Fore
SplineSet
194 1345 m 1
 194 1500 309 1577 425 1577 c 0
 542 1577 659 1499 659 1345 c 1
 565 1345 l 1
 565 1441 495 1490 425 1490 c 0
 355 1490 286 1442 286 1345 c 1
 194 1345 l 1
EndSplineSet
EndChar

StartChar: uni0326
Encoding: 350 806 357
Width: 606
VWidth: 0
Flags: HW
LayerCount: 2
Fore
SplineSet
199 -671 m 1
 286 -185 l 1
 425 -185 l 1
 293 -671 l 1
 199 -671 l 1
EndSplineSet
EndChar

StartChar: uni2074
Encoding: 372 8308 358
Width: 738
VWidth: 0
Flags: HW
LayerCount: 2
Fore
SplineSet
478 684 m 1
 478 908 l 1
 157 908 l 1
 157 992 l 1
 192 1054 501 1644 464 1567 c 1
 564 1567 l 1
 564 994 l 1
 654 994 l 1
 662 908 l 1
 562 908 l 1
 562 684 l 1
 478 684 l 1
241 994 m 1
 477 994 l 1
 477 994 477 1391 479 1433 c 1
 241 994 l 1
EndSplineSet
EndChar

StartChar: uniFB01
Encoding: 377 64257 359
Width: 1069
VWidth: 0
Flags: HW
LayerCount: 2
Fore
SplineSet
184 0 m 1
 184 1005 l 1
 28 1005 l 1
 28 1098 l 1
 184 1098 l 1
 184 1119 184 1123 185 1143 c 0
 193 1489 301 1531 525 1531 c 2
 601 1531 l 1
 620 1444 l 1
 515 1444 l 2
 328 1444 314 1364 313 1115 c 0
 313 1097 312 1117 312 1098 c 1
 911 1098 l 1
 911 0 l 1
 782 0 l 1
 782 1005 l 1
 312 1005 l 1
 312 0 l 1
 184 0 l 1
782 1324 m 1
 782 1505 l 1
 911 1505 l 1
 911 1324 l 1
 782 1324 l 1
EndSplineSet
Ligature2: "'liga'" f i
EndChar

StartChar: uniFB02
Encoding: 378 64258 360
Width: 1224
VWidth: 0
Flags: HW
LayerCount: 2
Fore
SplineSet
1067 -23 m 4
 885 -23 801 53 801 243 c 6
 801 1439 l 5
 755 1444 587 1463 543 1463 c 4
 388 1463 346 1372 346 1131 c 6
 346 1096 l 5
 613 1096 l 5
 613 1005 l 5
 346 1005 l 5
 346 0 l 5
 222 0 l 5
 222 1005 l 5
 42 1005 l 5
 50 1082 l 5
 222 1096 l 5
 222 1137 l 6
 222 1428 324 1549 529 1549 c 4
 640 1549 818 1520 923 1505 c 5
 923 250 l 6
 923 109 979 74 1070 74 c 4
 1131 74 1177 86 1220 97 c 5
 1225 1 l 5
 1184 -9 1106 -23 1067 -23 c 4
EndSplineSet
LCarets2: 1 0 
Ligature2: "'liga'" f l
EndChar

StartChar: v
Encoding: 86 118 364
Width: 989
VWidth: 0
Flags: HW
LayerCount: 2
Fore
SplineSet
419 0 m 1
 1 1096 l 1
 134 1096 l 1
 388 405 l 1
 434 258 497 111 497 111 c 1
 534 239 551 241 602 402 c 0
 672 624 704 630 855 1096 c 1
 988 1096 l 1
 563 0 l 1
 419 0 l 1
EndSplineSet
EndChar

StartChar: w
Encoding: 87 119 365
Width: 1563
VWidth: 0
Flags: HW
PickledData: "(dp1
S'com.typemytype.robofont.layerData'
p2
(dp3
s."
LayerCount: 2
Fore
SplineSet
332 0 m 1
 26 1096 l 1
 156 1096 l 1
 409 117 l 1
 409 117 682 995 714 1096 c 1
 866 1096 l 1
 900 985 1167 120 1168 120 c 2
 1410 1096 l 1
 1539 1096 l 1
 1238 0 l 1
 1094 0 l 1
 1090 -1 820 904 793 1004 c 1
 767 884 477 -1 476 0 c 1
 332 0 l 1
EndSplineSet
EndChar

StartChar: x
Encoding: 88 120 366
Width: 1023
VWidth: 0
Flags: HW
PickledData: "(dp1
S'com.typemytype.robofont.layerData'
p2
(dp3
s."
LayerCount: 2
Fore
SplineSet
43 0 m 1
 452 555 l 1
 56 1096 l 1
 194 1096 l 1
 514 644 l 1
 832 1096 l 1
 973 1096 l 1
 578 551 l 1
 981 0 l 1
 848 0 l 1
 515 465 l 1
 183 0 l 1
 43 0 l 1
EndSplineSet
EndChar

StartChar: y
Encoding: 89 121 367
Width: 983
VWidth: 0
Flags: HW
PickledData: "(dp1
S'com.typemytype.robofont.layerData'
p2
(dp3
s."
LayerCount: 2
Fore
SplineSet
98 -520 m 0
 69 -520 40 -517 13 -512 c 1
 4 -410 l 1
 28 -411 51 -413 73 -413 c 0
 239 -413 308 -371 374 -202 c 1
 396 -141 421 -76 445 -7 c 1
 7 1096 l 1
 137 1096 l 1
 510 110 l 2
 511 110 865 1225 836 1096 c 1
 966 1096 l 1
 966 1096 528 -135 508 -192 c 1
 422 -398 316 -520 98 -520 c 0
EndSplineSet
EndChar

StartChar: yen
Encoding: 100 165 370
Width: 1166
VWidth: 0
Flags: HW
LayerCount: 2
Fore
SplineSet
501 0 m 1
 501 338 l 1
 96 338 l 1
 96 448 l 1
 501 448 l 1
 501 629 l 1
 95 629 l 1
 95 741 l 1
 430 741 l 1
 5 1488 l 1
 144 1488 l 1
 575 705 l 1
 1020 1488 l 1
 1161 1488 l 1
 719 741 l 1
 1037 741 l 1
 1037 629 l 1
 632 629 l 1
 632 448 l 1
 1036 448 l 1
 1036 338 l 1
 632 338 l 1
 632 0 l 1
 501 0 l 1
EndSplineSet
EndChar

StartChar: z
Encoding: 90 122 371
Width: 907
VWidth: 0
Flags: HW
LayerCount: 2
Fore
SplineSet
104 0 m 1
 104 104 l 1
 683 997 l 1
 114 997 l 1
 114 1096 l 1
 813 1096 l 1
 813 979 l 1
 232 93 l 1
 831 93 l 1
 831 0 l 1
 104 0 l 1
EndSplineSet
EndChar

StartChar: zero
Encoding: 16 48 375
Width: 1256
VWidth: 0
Flags: HW
LayerCount: 2
Fore
SplineSet
616 -24 m 0
 279 -24 130 291 130 748 c 0
 130 1234 298 1514 616 1514 c 0
 934 1514 1098 1235 1098 748 c 0
 1098 291 952 -24 616 -24 c 0
615 83 m 0
 842 83 962 343 962 753 c 0
 962 1154 845 1407 616 1407 c 0
 386 1407 270 1151 270 752 c 0
 270 342 387 83 615 83 c 0
EndSplineSet
EndChar

StartChar: uniFB00
Encoding: 379 64256 376
Width: 1169
VWidth: 0
Flags: HW
LayerCount: 2
Fore
SplineSet
755 0 m 1
 755 1005 l 1
 346 1005 l 1
 346 0 l 1
 222 0 l 1
 222 1005 l 1
 42 1005 l 1
 50 1082 l 1
 222 1096 l 1
 222 1137 l 2
 222 1428 324 1549 529 1549 c 0
 580 1549 622 1543 682 1534 c 1
 673 1452 l 1
 629 1457 587 1463 543 1463 c 0
 388 1463 346 1372 346 1131 c 2
 346 1096 l 1
 755 1096 l 1
 755 1137 l 2
 755 1428 857 1549 1062 1549 c 0
 1113 1549 1155 1543 1215 1534 c 1
 1206 1452 l 1
 1162 1457 1120 1463 1076 1463 c 0
 921 1463 879 1372 879 1131 c 2
 879 1096 l 1
 1146 1096 l 1
 1146 1005 l 1
 879 1005 l 1
 879 0 l 1
 755 0 l 1
EndSplineSet
Ligature2: "'liga'" f f
EndChar

StartChar: endash
Encoding: 359 8211 386
Width: 1054
VWidth: 0
Flags: HW
LayerCount: 2
Fore
SplineSet
108 531 m 1
 108 641 l 1
 946 641 l 1
 946 531 l 1
 108 531 l 1
EndSplineSet
EndChar

StartChar: emdash
Encoding: 360 8212 387
Width: 2078
VWidth: 0
Flags: HW
LayerCount: 2
Fore
SplineSet
108 531 m 1
 108 641 l 1
 1970 641 l 1
 1970 531 l 1
 108 531 l 1
EndSplineSet
EndChar

StartChar: uniFB03
Encoding: 385 64259 388
Width: 1751
VWidth: 0
Flags: HW
LayerCount: 2
Fore
SplineSet
1451 1320 m 1
 1451 1488 l 1
 1575 1488 l 1
 1575 1320 l 1
 1451 1320 l 1
222 0 m 1
 222 1005 l 1
 42 1005 l 1
 50 1082 l 1
 222 1096 l 1
 222 1137 l 2
 222 1428 324 1549 529 1549 c 0
 580 1549 622 1543 682 1534 c 1
 673 1452 l 1
 629 1457 587 1463 543 1463 c 0
 388 1463 346 1372 346 1131 c 2
 346 1096 l 1
 860 1096 l 1
 860 1137 l 2
 860 1428 962 1549 1167 1549 c 0
 1218 1549 1260 1543 1320 1534 c 1
 1311 1452 l 1
 1267 1457 1225 1463 1181 1463 c 0
 1026 1463 984 1372 984 1131 c 2
 984 1096 l 1
 1576 1096 l 1
 1576 0 l 1
 1451 0 l 1
 1451 1005 l 1
 984 1005 l 1
 984 0 l 1
 860 0 l 1
 860 1005 l 1
 689 1005 517 1005 346 1005 c 1
 346 0 l 1
 222 0 l 1
EndSplineSet
Ligature2: "'liga'" f f i
EndChar

StartChar: uniFB04
Encoding: 386 64260 389
Width: 1843
VWidth: 0
Flags: HW
LayerCount: 2
Fore
SplineSet
1686 -23 m 0
 1504 -23 1420 53 1420 243 c 2
 1420 1439 l 1
 1374 1444 1206 1463 1162 1463 c 0
 1007 1463 965 1372 965 1131 c 2
 965 1096 l 1
 1232 1096 l 1
 1232 1005 l 1
 965 1005 l 1
 965 0 l 1
 841 0 l 1
 841 1005 l 1
 676 1005 511 1005 346 1005 c 1
 346 0 l 1
 222 0 l 1
 222 1005 l 1
 42 1005 l 1
 50 1082 l 1
 222 1096 l 1
 222 1137 l 2
 222 1428 324 1549 529 1549 c 0
 580 1549 622 1543 682 1534 c 1
 673 1452 l 1
 629 1457 586 1463 542 1463 c 0
 387 1463 346 1372 346 1131 c 2
 346 1096 l 1
 841 1096 l 1
 841 1137 l 2
 841 1428 943 1549 1148 1549 c 0
 1259 1549 1437 1520 1542 1505 c 1
 1542 250 l 2
 1542 109 1598 74 1689 74 c 0
 1750 74 1796 86 1839 97 c 1
 1844 1 l 1
 1803 -9 1725 -23 1686 -23 c 0
EndSplineSet
Ligature2: "'liga'" f f l
EndChar

StartChar: foundryicon
Encoding: 387 -1 395
Width: 1371
VWidth: 0
Flags: HW
LayerCount: 2
Fore
SplineSet
685 1338 m 5
 830 893 l 5
 1298 893 l 5
 919 618 l 5
 1064 173 l 5
 685 448 l 5
 307 173 l 5
 452 618 l 5
 73 893 l 5
 541 893 l 5
 685 1338 l 5
EndSplineSet
EndChar

StartChar: percent
Encoding: 5 37 396
Width: 1763
Flags: HW
HStem: -15 113<1254.76 1513.99> 640 114<1254.89 1514.13> 728 116<260.911 484.404> 1378 111<264.468 483.934>
VStem: 56 127<928.491 1289.47> 564 129<927.578 1284.54> 1032 126<199.476 538.018> 1610 127<200.515 539.71>
LayerCount: 2
Fore
SplineSet
401 719 m 0x9f
 627 719 742 887 742 1103 c 0
 742 1324 630 1488 401 1488 c 0
 169 1488 58 1324 58 1103 c 0
 58 887 172 719 401 719 c 0x9f
401 1404 m 0
 591 1404 635 1249 635 1103 c 0
 635 962 583 802 401 802 c 0
 216 802 165 962 165 1103 c 0
 165 1249 208 1404 401 1404 c 0
1367 0 m 4x9f
 1593 0 1708 168 1708 384 c 4
 1708 605 1596 769 1367 769 c 4
 1135 769 1024 605 1024 384 c 4
 1024 168 1138 0 1367 0 c 4x9f
1367 685 m 4
 1557 685 1601 530 1601 384 c 4
 1601 243 1549 83 1367 83 c 4
 1182 83 1131 243 1131 384 c 4
 1131 530 1174 685 1367 685 c 4
412 0 m 1
 1227 1488 l 1
 1354 1488 l 1
 532 0 l 1
 412 0 l 1
EndSplineSet
EndChar

StartChar: perthousand
Encoding: 403 8240 397
Width: 2581
Flags: HW
HStem: -15 113<1254.76 1513.99> 640 114<1254.89 1514.13> 728 116<260.911 484.404> 1378 111<264.468 483.934>
VStem: 56 127<928.491 1289.47> 564 129<927.578 1284.54> 1032 126<199.476 538.018> 1610 127<200.515 539.71>
LayerCount: 2
Fore
SplineSet
1350 0 m 0x9f
 1576 0 1691 168 1691 384 c 0
 1691 605 1579 769 1350 769 c 0
 1118 769 1007 605 1007 384 c 0
 1007 168 1121 0 1350 0 c 0x9f
1350 685 m 0
 1540 685 1584 530 1584 384 c 0
 1584 243 1532 83 1350 83 c 0
 1165 83 1114 243 1114 384 c 0
 1114 530 1157 685 1350 685 c 0
401 719 m 0x9f
 627 719 742 887 742 1103 c 0
 742 1324 630 1488 401 1488 c 0
 169 1488 58 1324 58 1103 c 0
 58 887 172 719 401 719 c 0x9f
401 1404 m 0
 591 1404 635 1249 635 1103 c 0
 635 962 583 802 401 802 c 0
 216 802 165 962 165 1103 c 0
 165 1249 208 1404 401 1404 c 0
2156 0 m 0x9f
 2382 0 2497 168 2497 384 c 0
 2497 605 2385 769 2156 769 c 0
 1924 769 1813 605 1813 384 c 0
 1813 168 1927 0 2156 0 c 0x9f
2156 685 m 0
 2346 685 2390 530 2390 384 c 0
 2390 243 2338 83 2156 83 c 0
 1971 83 1920 243 1920 384 c 0
 1920 530 1963 685 2156 685 c 0
400 0 m 5
 1215 1488 l 5
 1342 1488 l 5
 520 0 l 5
 400 0 l 5
EndSplineSet
EndChar

StartChar: product
Encoding: 375 8719 398
Width: 1274
VWidth: 0
Flags: HW
LayerCount: 2
Fore
SplineSet
122 0 m 1
 122 1488 l 1
 1152 1488 l 5
 1152 0 l 5
 1024 0 l 5
 1024 1376 l 5
 250 1376 l 1
 250 0 l 1
 122 0 l 1
EndSplineSet
EndChar

StartChar: Euro
Encoding: 373 8364 399
Width: 1292
VWidth: 0
Flags: HW
LayerCount: 2
Fore
SplineSet
-1 829 m 1
 -1 936 l 1
 135 936 l 1
 198 1278 440 1514 826 1514 c 0
 1011 1514 1141 1471 1240 1412 c 1
 1179 1313 l 1
 1081 1372 955 1407 827 1407 c 0
 521 1407 336 1210 279 936 c 1
 941 936 l 1
 941 829 l 1
 264 829 l 1
 262 801 260 772 260 742 c 0
 260 709 261 678 264 646 c 1
 940 646 l 1
 940 538 l 1
 281 538 l 1
 337 278 510 84 832 84 c 0
 961 84 1080 125 1182 171 c 1
 1208 68 l 1
 1120 13 992 -23 813 -23 c 0
 423 -23 200 206 137 538 c 1
 0 538 l 1
 0 646 l 1
 122 646 l 1
 119 680 118 714 118 749 c 0
 118 776 119 803 121 829 c 1
 -1 829 l 1
EndSplineSet
EndChar

StartChar: infinity
Encoding: 399 8734 400
Width: 1855
Flags: HW
HStem: 254 127<379.941 657.298 1207.69 1484.94> 893 124<370.517 659.21 1204.28 1482.42>
VStem: 158 113<494.379 789.861> 1578 123<484.319 800.799>
LayerCount: 2
Fore
SplineSet
1701 642 m 0
 1701 396 1545 259 1346 259 c 4
 1194 259 1068 354 932 535 c 1
 812 377 683 259 516 259 c 4
 289 259 158 440 158 659 c 0
 158 858 314 1017 511 1017 c 0
 682 1017 809 899 932 735 c 1
 1047 893 1174 1017 1349 1017 c 0
 1577 1017 1701 860 1701 642 c 0
518 361 m 0
 651 361 777 497 871 636 c 1
 778 783 654 913 510 913 c 0
 349 913 270 779 270 643 c 0
 270 503 354 361 518 361 c 0
1344 913 m 0
 1205 913 1084 770 995 638 c 1
 1118 470 1222 361 1349 361 c 0
 1509 361 1592 501 1592 640 c 0
 1592 777 1511 913 1344 913 c 0
EndSplineSet
EndChar

StartChar: integral
Encoding: 376 8747 401
Width: 957
VWidth: 0
Flags: HW
LayerCount: 2
Fore
SplineSet
103 -359 m 0
 81 -359 37 -349 13 -335 c 1
 36 -247 l 1
 36 -247 65 -260 98 -260 c 0
 184 -260 230 -142 252 -11 c 2
 462 1231 l 2
 493 1414 546 1588 754 1588 c 0
 788 1588 809 1586 867 1568 c 1
 860 1471 l 1
 824 1485 793 1491 766 1491 c 0
 667 1491 613 1401 595 1287 c 2
 395 84 l 2
 349 -194 310 -359 103 -359 c 0
EndSplineSet
EndChar

StartChar: uni00B2
Encoding: 113 178 402
Width: 753
VWidth: 0
Flags: HW
LayerCount: 2
Fore
SplineSet
94 568 m 1
 94 645 l 1
 450 1026 551 1142 551 1247 c 0
 551 1345 471 1400 394 1400 c 0
 324 1400 257 1375 193 1272 c 1
 111 1303 l 1
 162 1425 275 1488 391 1488 c 0
 528 1488 654 1400 654 1239 c 0
 654 1060 473 915 223 650 c 1
 637 650 l 1
 645 568 l 1
 94 568 l 1
EndSplineSet
EndChar

StartChar: uni00B3
Encoding: 114 179 403
Width: 607
VWidth: 0
Flags: HW
LayerCount: 2
Fore
SplineSet
293 628 m 4
 211 628 117 652 63 706 c 5
 101 774 l 5
 184 711 237 706 289 706 c 4
 371 706 452 771 452 866 c 4
 452 988 377 1038 259 1038 c 6
 170 1038 l 5
 170 1112 l 5
 250 1112 l 6
 346 1112 427 1152 421 1274 c 4
 417 1352 359 1411 270 1411 c 4
 210 1411 138 1387 108 1361 c 5
 67 1432 l 5
 108 1462 191 1487 269 1487 c 4
 395 1487 519 1430 519 1276 c 4
 519 1150 449 1114 386 1079 c 5
 489 1050 539 984 539 873 c 4
 539 712 430 628 293 628 c 4
EndSplineSet
EndChar

StartChar: section
Encoding: 102 167 404
Width: 880
Flags: HW
LayerCount: 2
Back
SplineSet
291 1019 m 1
 195 1080 130 1138 130 1262 c 0
 130 1406.98 248 1514 484 1514 c 0
 570 1514 670 1497 747 1467 c 1
 728 1377 l 1
 658.629 1403.87 567.334 1422.3 482.874 1422.3 c 0
 356.825 1422.3 246 1381.26 246 1266 c 0
 246 1171 319 1122 503 1049 c 1
 700 969 791 890 791 759 c 0
 791 634 713 551 618 491 c 1
 714 436 780 379 780 263 c 0
 780 86 630 -17 389 -17 c 0
 279 -17 186 0 115 33 c 1
 130 125 l 1
 199.968 93.1255 295.928 73.3359 387.158 73.3359 c 0
 530.954 73.3359 663 122.501 663 251 c 0
 663 358 579 391 413 459 c 1
 199 541 112 618 112 767 c 0
 112 892 190 966 291 1019 c 1
380 979 m 1
 298 944 221 879 221 782 c 0
 221 676 302 623 461 560 c 1
 525 533 l 1
 604 581 681 646 681 739 c 0
 681 872 540 921 380 979 c 1
EndSplineSet
Fore
SplineSet
282 1019 m 1
 186 1080 121 1138 121 1262 c 0
 121 1407 239 1514 475 1514 c 0
 561 1514 661 1497 738 1467 c 1
 719 1377 l 1
 650 1404 558 1422 474 1422 c 0
 348 1422 237 1381 237 1266 c 0
 237 1171 315 1115 499 1042 c 1
 696 962 782 890 782 759 c 0
 782 634 704 551 609 491 c 1
 705 436 771 379 771 263 c 0
 771 86 621 -17 380 -17 c 0
 270 -17 177 0 106 33 c 1
 121 125 l 1
 191 93 287 73 378 73 c 0
 522 73 654 123 654 251 c 0
 654 358 574 401 408 469 c 1
 194 551 103 627 103 776 c 0
 103 901 181 966 282 1019 c 1
371 979 m 1
 289 944 212 879 212 782 c 0
 212 676 293 623 452 560 c 1
 516 533 l 1
 595 581 672 646 672 739 c 0
 672 872 531 921 371 979 c 1
EndSplineSet
EndChar

StartChar: ordmasculine
Encoding: 120 186 405
Width: 838
Flags: HW
LayerCount: 2
Back
SplineSet
256 1207 m 0
 256 1058 322 941 453 941 c 0
 578 941 645 1062 645 1203 c 0
 645 1351 576 1473 449 1473 c 0
 326 1473 256 1351 256 1207 c 0
451 1590 m 0
 655 1590 769 1419 769 1205 c 0
 769 994 655 826 453 826 c 0
 241 826 131 994 131 1210 c 0
 131 1422 248 1590 451 1590 c 0
EndSplineSet
Fore
SplineSet
213 1117 m 0
 213 966 281 839 422 839 c 0
 557 839 626 970 626 1113 c 0
 626 1263 555 1395 418 1395 c 0
 285 1395 213 1263 213 1117 c 0
420 1488 m 0
 615 1488 726 1325 726 1115 c 0
 726 908 615 748 422 748 c 0
 218 748 112 908 112 1120 c 0
 112 1328 225 1488 420 1488 c 0
EndSplineSet
EndChar

